<svg width="20" height="15" fill="none" xmlns="http://www.w3.org/2000/svg"><rect width="20" height="14.286" rx="2" fill="#fff"/><mask id="mask0" maskUnits="userSpaceOnUse" x="0" y="0" width="20" height="15"><rect width="20" height="14.286" rx="2" fill="#fff"/></mask><g mask="url(#mask0)"><path fill="#0A17A7" d="M0 0h20v14.286H0z"/><path fill-rule="evenodd" clip-rule="evenodd" d="M-.916-1.369l8.535 5.757v-5.34h4.762v5.34l8.535-5.757 1.065 1.58-6.748 4.55H20v4.763h-4.767l6.748 4.552-1.065 1.579-8.535-5.757v5.34H7.619v-5.34l-8.535 5.757-1.065-1.58 6.748-4.551H0V4.762h4.767L-1.981.21l1.065-1.579z" fill="#fff"/><path d="M13.334 4.523l9.047-5.951M14.295 9.784l8.11 5.466M5.718 4.507l-8.459-5.7M6.636 9.718l-9.377 6.218" stroke="#DB1F35" stroke-width=".667" stroke-linecap="round"/><path fill-rule="evenodd" clip-rule="evenodd" d="M0 8.571h8.571v5.715h2.858V8.57H20V5.714h-8.571V0H8.57v5.714H0v2.857z" fill="#E6273E"/></g></svg>