<svg width="41" height="41" fill="none" xmlns="http://www.w3.org/2000/svg"><path fill-rule="evenodd" clip-rule="evenodd" d="M27.31 5.506a16.517 16.517 0 00-10.136-1.098 16.49 16.49 0 00-8.844 5.06 16.408 16.408 0 00-2.063 19.234 16.466 16.466 0 007.57 6.813 16.517 16.517 0 0010.139 1.066 16.489 16.489 0 008.828-5.088 16.421 16.421 0 004.137-9.295 2.034 2.034 0 012.234-1.81 2.031 2.031 0 011.814 2.229 20.477 20.477 0 01-5.16 11.59 20.56 20.56 0 01-11.007 6.345 20.587 20.587 0 01-12.642-1.33 20.532 20.532 0 01-9.44-8.494A20.46 20.46 0 015.313 6.745 20.561 20.561 0 0116.34.435a20.595 20.595 0 0112.638 1.369A2.028 2.028 0 0130 4.487a2.037 2.037 0 01-2.69 1.019z" fill="#fff"/><path fill-rule="evenodd" clip-rule="evenodd" d="M27.31 5.506a16.517 16.517 0 00-10.136-1.098 16.49 16.49 0 00-8.844 5.06 16.408 16.408 0 00-2.063 19.234 16.466 16.466 0 007.57 6.813 16.517 16.517 0 0010.139 1.066 16.489 16.489 0 008.828-5.088 16.421 16.421 0 004.137-9.295 2.034 2.034 0 012.234-1.81 2.031 2.031 0 011.814 2.229 20.477 20.477 0 01-5.16 11.59 20.56 20.56 0 01-11.007 6.345 20.587 20.587 0 01-12.642-1.33 20.532 20.532 0 01-9.44-8.494A20.46 20.46 0 015.313 6.745 20.561 20.561 0 0116.34.435a20.595 20.595 0 0112.638 1.369A2.028 2.028 0 0130 4.487a2.037 2.037 0 01-2.69 1.019z" fill="#1053FF" fill-opacity=".5"/><path fill-rule="evenodd" clip-rule="evenodd" d="M27.31 5.506a16.517 16.517 0 00-10.136-1.098 16.49 16.49 0 00-8.844 5.06 16.408 16.408 0 00-2.063 19.234 16.466 16.466 0 007.57 6.813 16.517 16.517 0 0010.139 1.066 16.489 16.489 0 008.828-5.088 16.421 16.421 0 004.137-9.295 2.034 2.034 0 012.234-1.81 2.031 2.031 0 011.814 2.229 20.477 20.477 0 01-5.16 11.59 20.56 20.56 0 01-11.007 6.345 20.587 20.587 0 01-12.642-1.33 20.532 20.532 0 01-9.44-8.494A20.46 20.46 0 015.313 6.745 20.561 20.561 0 0116.34.435a20.595 20.595 0 0112.638 1.369A2.028 2.028 0 0130 4.487a2.037 2.037 0 01-2.69 1.019z" fill="url(#paint0_linear)" style="mix-blend-mode:overlay"/><path fill-rule="evenodd" clip-rule="evenodd" d="M37.922 8.724a2.923 2.923 0 01.328 4.222L23.092 29.959a3.145 3.145 0 01-2.268 1.04 3.157 3.157 0 01-2.322-.923L8.86 20.343a2.921 2.921 0 01.097-4.233c1.237-1.142 3.2-1.1 4.383.094l7.28 7.35L33.55 9.04c1.117-1.253 3.074-1.395 4.372-.317z" fill="#FFD324"/><path fill-rule="evenodd" clip-rule="evenodd" d="M37.922 8.724a2.923 2.923 0 01.328 4.222L23.092 29.959a3.145 3.145 0 01-2.268 1.04 3.157 3.157 0 01-2.322-.923L8.86 20.343a2.921 2.921 0 01.097-4.233c1.237-1.142 3.2-1.1 4.383.094l7.28 7.35L33.55 9.04c1.117-1.253 3.074-1.395 4.372-.317z" fill="url(#paint1_linear)"/><defs><linearGradient id="paint0_linear" x1="26.251" y1=".73" x2="11.253" y2="41.024" gradientUnits="userSpaceOnUse"><stop offset=".214" stop-color="#fff"/><stop offset="1" stop-color="#fff" stop-opacity="0"/></linearGradient><linearGradient id="paint1_linear" x1="23.5" y1="10.993" x2="23.5" y2="28.006" gradientUnits="userSpaceOnUse"><stop stop-color="#FFD324"/><stop offset=".984" stop-color="#F48C12"/></linearGradient></defs></svg>