<svg aria-hidden="true" style="position:absolute;width:0;height:0" xmlns="http://www.w3.org/2000/svg" overflow="hidden"><defs><symbol id="icon-heart" viewBox="0 0 32 32"><path d="M16 2.628C24.876-6.496 47.068 9.47 16 30-15.068 9.472 7.124-6.496 16 2.628z"/></symbol><symbol id="icon-mentor" viewBox="0 0 36 32"><path fill="var(--color2, #96d9c9)" d="M28.069 20.596l.291-.283c-.091-.511-.568-.756-.882-.789-.846-.09-1.276.493-1.458 1.429-.332 1.708.086 8.881.086 8.881.031-.19 2.328-7.394 2.269-9.373l-.305.133z"/><path fill="var(--color3, #3c8f7c)" d="M17.27 26.81l-.032.233-.075-.269c-.21-.066-.393-.089-.538-.056-1.295.295.942 2.082.942 2.082s-.713-.449-1.404-.734l-.009.235-.089-.266c-.536-.211-1.034-.308-1.133-.003-.093.286.094.557.419.799l.372.014-.219.092c.748.481 1.987.825 2.415.904-.409-.065-1.409-.195-2.001-.067l.093.155-.234-.117c-.208.067-.336.178-.322.353.026.335 1.473.455 1.473.455l5.285-.049.03.015c0 .001-3.27-3.148-4.974-3.774z"/><path fill="var(--color4, #50bfa5)" d="M35.623 29.797c-.118-.548-1.31-.709-2.832-.408.542-.186 1.285-.609 1.672-.801l-.263-.169.529.025c.433-.254.65-.504.508-.731-.106-.169-.337-.239-.652-.238l-.166.297.034-.293c-.793.046-.972-.084-2.041.35.668-.348.764-.456.809-.596l-.362-.158h.424c.343-.37.886-1.102.661-1.439-.186-.278-1.003.108-1.524.309l-.221.5.045-.427c-1.658.725-1.096.144-1.096.144s1.731-3.592.711-3.511c-.402.032-.836.276-1.26.666l-.01.357-.126-.227a8.94 8.94 0 00-.908 1.069c.396-.837.697-1.658.728-2.269l-.303-.036.299-.209c-.028-.309-.15-.543-.397-.667-.379-.189-.777.097-1.169.667l.096.514-.243-.288c-1.402 2.294-2.684 7.94-2.684 7.94l-.102.307 4.12.204c.001-.001 5.964.227 5.727-.88z"/><path fill="var(--color5, #184655)" d="M36.134 30.703H14.759c-.035 0-.065-.031-.065-.068s.028-.068.065-.068h21.375c.035 0 .065.031.065.068s-.03.068-.065.068z"/><path fill="var(--color6, #86b1f2)" d="M29.564 28.27h-9.662c-.369 0-.668-.272-.668-.609V27.3c0-.336.299-.609.668-.609h9.662a1.092 1.092 0 00-.018 1.56l.018.018z"/><path fill="var(--color7, #fae0b2)" d="M29.429 26.873h-4.862c-.335 0-.606.272-.606.609s.271.609.606.609h4.862a1.175 1.175 0 010-1.217z"/><path fill="var(--color8, #355389)" d="M29.13 24.966c.022-.037-.011-.079-.06-.079h-7.695c-.603 0-1.092.405-1.092.905 0 .499.489.905 1.092.905h7.697c.049 0 .082-.042.06-.079a1.613 1.613 0 01-.002-1.652z"/><path fill="var(--color7, #fae0b2)" d="M29.068 25.083h-5.163a.69.69 0 00-.69.693v.052c0 .383.309.693.69.693h5.174a1.607 1.607 0 01-.01-1.438zm-9.303-.276h4.966c.441 0 .797-.386.797-.863s-.357-.863-.797-.863h-4.966c.379.479.394 1.181.035 1.676l-.035.049z"/><path fill="var(--color9, #466eb6)" d="M25.463 23.944c0-.476-.361-.863-.806-.863h-4.982c-.023 0-.042-.02-.042-.046s.019-.044.042-.044h7.902c.492 0 .89.426.89.953s-.399.953-.89.953h-7.902c-.023 0-.042-.019-.042-.044s.018-.046.042-.046h4.982c.445 0 .806-.386.806-.863z"/><path fill="var(--color10, #ff4c16)" d="M25.815 25.806h-.531c-.115 0-.207.035-.207.08v.007h.738v-.087z"/><path fill="var(--color11, #f47458)" d="M26.268 26.006c0-.111-.139-.199-.31-.199h-.683c.13 0 .235.067.235.152l-.003 2.136.377-.275.384.275v-2.088z"/><path fill="var(--color12, #b75742)" d="M33.538 28.268H19.18a.808.808 0 00-.807.81v.682c0 .448.361.81.807.81l14.349-.008a1.655 1.655 0 01.009-2.294z"/><path fill="var(--color7, #fae0b2)" d="M33.283 28.608h-7.675c-.446 0-.807.362-.807.81s.361.81.807.81h7.675a1.654 1.654 0 010-1.621z"/><path fill="var(--color13, #13375b)" d="M29.515 29.422h-.622a.242.242 0 00-.242.243v.022h.865v-.264h-.001z"/><path fill="var(--color8, #355389)" d="M28.917 29.423c.149 0 .371.127.496.283l1.476 1.837h.868l-1.404-1.747c-.165-.205-.458-.373-.654-.373h-.782z"/><path fill="var(--color14, #f7cc7f)" d="M18.506 23.49c-.368.056-.484.538-.181.758.054.04.092.098.107.164l.052.226a.121.121 0 00.137.093l.14-.022a.122.122 0 00.103-.13c-.016-.233-.039-.317.037-.419.224-.3-.028-.726-.396-.67z"/><path fill="var(--color7, #fae0b2)" d="M18.587 24.555s-.001 0 0 0a.035.035 0 01-.039-.028l-.068-.492-.115-.099a.033.033 0 01-.003-.048.033.033 0 01.048-.003l.134.115.073.517c.001.019-.011.037-.03.039zm.17-.005c.019-.003.032-.021.028-.039l-.079-.49.081-.129a.034.034 0 00-.057-.037l-.094.15.084.516a.03.03 0 00.037.027z"/><path fill="var(--color2, #96d9c9)" d="M18.43 24.407l.001.006.052.226a.121.121 0 00.137.093l.14-.022a.122.122 0 00.103-.13c-.007-.104-.016-.178-.016-.237l-.418.064z"/><path fill="var(--color11, #f47458)" d="M18.437 19.898l-.145-.212-.257.001c-.03 0-.045-.033-.028-.057l.156-.204-.079-.244a.035.035 0 01.045-.044l.242.085.207-.152a.035.035 0 01.056.03l-.006.258.208.15c.024.017.017.054-.01.063l-.245.074-.078.245a.037.037 0 01-.064.007z"/><path fill="var(--color15, #9bc1f9)" d="M31.936 20.281l-.107-.155h-.189a.026.026 0 01-.02-.042l.115-.15-.059-.18a.026.026 0 01.033-.033l.177.063.152-.112c.017-.013.042 0 .041.022l-.005.189.152.111c.017.013.013.04-.008.046l-.181.055-.058.18a.024.024 0 01-.044.008z"/><path fill="var(--color16, #f48c7f)" d="M28.934 17.997l-.237-.041-.139.203-.262-.064-.081.262-.3-.059-.105.231-.297-.009.003-.113.223.007.11-.244.287.056.083-.266.29.071.135-.198.22.038.061-.149.104.044-.096.231z"/><path fill="var(--color4, #50bfa5)" d="M22.214 18.733l-.174.054-.116-.271-.263.047-.12-.188-.094.062.16.251.25-.043.12.28.261-.08-.024-.111z"/><path fill="var(--color16, #f48c7f)" d="M17.11 21.599l-.259.158.269 1.214a.156.156 0 00.234.1.16.16 0 00.072-.17l-.066-.285.273-.166.225.189a.157.157 0 00.182.014l.005-.003a.157.157 0 00.019-.254l-.953-.797zm.175.73l-.05-.223.175.147-.125.076z"/><path fill="var(--color14, #f7cc7f)" d="M32.762 22.746c.014-.034.009-.157.179-.276.07-.048.127-.089.143-.145.027-.097-.075-.144-.176-.142a.096.096 0 01-.096-.095.097.097 0 01.093-.1.634.634 0 01.199.023c.217.06.283.209.245.345-.035.125-.135.187-.217.238-.137.088-.137.186-.149.213l-.221-.062zm-.105.216a.148.148 0 01.189-.109c.089.025.129.104.107.192a.15.15 0 01-.19.109c-.087-.024-.129-.105-.106-.191z"/><path fill="var(--color2, #96d9c9)" d="M20.144 19.759c.067.006.196.033.316.067.146.042.232.082.296.149.062.06.095.148.068.245-.027.095-.107.168-.24.178l-.001.003c.111.068.175.185.136.323a.292.292 0 01-.175.194c-.094.04-.234.038-.444-.023a2.127 2.127 0 01-.256-.09l.299-1.046zm.121.475l.078.023c.126.037.208.003.231-.075.023-.081-.026-.14-.135-.172a.597.597 0 00-.104-.023l-.069.247zm-.135.472c.023.01.051.018.092.03.109.031.216.017.248-.095.031-.107-.053-.178-.173-.212l-.082-.024-.085.301z"/><path fill="var(--color14, #f7cc7f)" d="M30.409 20.22a.111.111 0 01-.082.133.935.935 0 01-.206.026c-.418.014-.642-.239-.653-.585-.014-.414.273-.654.638-.667a.879.879 0 01.188.013.112.112 0 01.089.133l-.001.003a.109.109 0 01-.127.085.653.653 0 00-.129-.009c-.217.007-.382.145-.372.415.008.243.157.391.401.383a.638.638 0 00.123-.016.112.112 0 01.132.084z"/><path fill="var(--color9, #466eb6)" d="M16.859 25.865a.168.168 0 01.107-.213c.09-.03.173.015.207.105.033.091-.003.181-.098.215s-.184-.014-.216-.107zm-.03-.263l-.282-.675a.106.106 0 01.061-.14l.068-.025c.057-.02.119.01.136.068l.213.7-.198.072z"/><path fill="var(--color15, #9bc1f9)" d="M31.08 15.378h-2.775c-.744 0-1.347-.605-1.347-1.352s.603-1.352 1.347-1.352h2.775c.744 0 1.347.605 1.347 1.352s-.603 1.352-1.347 1.352z"/><path fill="var(--color15, #9bc1f9)" d="M27.234 14.236l-.613.708.977-.165-.363-.542z"/><path fill="var(--color17, #fff)" d="M27.75 13.718h3.995a.096.096 0 000-.192H27.75a.096.096 0 000 .192zm0 .71h3.995a.096.096 0 000-.192H27.75a.096.096 0 000 .192z"/><path fill="var(--color18, #3259a1)" d="M24.323 16.32c.392-.318 1.416.122 1.569.327.15.202.455 2.331.23 2.478s-.919.446-1.207.182c-.29-.263-.593-2.987-.593-2.987z"/><path fill="var(--color19, #ffa283)" d="M23.972 16.205s-.664-.341-.755-.511c-.09-.17-.466-.74-.466-.74s-.192.024-.243.111c.062.235.254.886.501 1.078.248.192.899.587.899.587l.064-.525zm-.132 4.016s-.023.463-.023.745.433 1.388.394 1.547c-.04.158.408.137.408.137s.031-.859-.085-1.265c-.116-.407 0-1.241 0-1.241l-.694.077zm1.087-.223s.145.765.263.94.754 1.365.754 1.518.4.029.4.029-.337-1.304-.472-1.699-.185-.723-.185-.723l-.76-.065z"/><path fill="var(--color13, #13375b)" d="M23.834 19.239c-.041.252-.209 1.78-.209 1.78s.573.177.916.098c0 0-.009-1.23.069-1.23h.002a.25.25 0 01.238.189c.066.264.246 1.063.246 1.063s.724-.101.882-.174c0 0-.242-1.729-.506-1.994l-.317-.286-1.156-.149c-.001 0-.137.524-.167.703z"/><path fill="var(--color9, #466eb6)" d="M23.531 22.998h1.229s.025-.446-.059-.53-.061.01-.202.065c-.141.054-.232-.076-.296-.14-.065-.065-.018.206-.288.206-.27-.002-.445.275-.383.399zm2.4-.591c-.064.015-.263.179-.329.356s-.048.24-.048.24.203.091.594.062c.391-.028.33-.072.33-.072s-.028-.403-.094-.525c-.067-.122-.342-.085-.453-.06z"/><path fill="var(--color19, #ffa283)" d="M26.218 17.441c.401.65.634 1.096.409 1.378-.245.309-.763.248-1.003.509-.225-.083-.27-.307-.27-.307l.232-.075c.462-.202.656-.32.593-.54s-.29-.513-.29-.513c.105-.473.329-.452.329-.452z"/><path fill="var(--color11, #f47458)" d="M26.458 17.557s-.307.455-.547.464c-.158-.238-.228-.375-.229-.349-.002.03-.001.807-.042 1.232-.317.185-1.807.063-1.808-.132-.001-.148.359-1.638.152-1.801-.075-.059-.714-.403-.714-.403s.267-.527.431-.69c0 0 .32.169.627.292.402.162.739.207.963.311.786.366.845.543 1.167 1.076z"/><path fill="var(--color9, #466eb6)" d="M25.323 16.496c-.209.626.058 1.959.353 2.292.085-.206-.243-1.045 0-2.11.007-.054-.332-.239-.353-.182zm-.581-.185c-.302.329-.755 1.552-.764 1.613.014-1.069.42-1.575.487-1.699.044-.03.282.055.277.087z"/><path fill="var(--color19, #ffa283)" d="M24.688 15.999v.558s.204.22.468.067l.122-.719-.589.093z"/><path fill="var(--color20, #ff7f4c)" opacity=".68" d="M24.688 16.281c.168.042.377-.03.555-.172l.034-.203-.589.092v.283z"/><path fill="var(--color19, #ffa283)" d="M24.704 15.03s-.575.692-.312 1.031c.261.34.855.109 1.149-.32.293-.428-.729-1.031-.837-.711z"/><path fill="var(--color21, #011037)" d="M25.266 15.279s.21.007.127.205-.233.266-.153.346c.055.055.024.168-.001.233a.171.171 0 00-.005.105l.001.005a.17.17 0 00.176.12c.193-.017.517-.114.499-.583 0 0 .161-.301.001-.532-.16-.23-.282-.211-.282-.211s-.058-.218-.236-.269c-.178-.051-.702-.237-.76.051s.198.499.632.531z"/><path fill="var(--color19, #ffa283)" d="M25.21 15.642c.015-.008.227-.106.259.015.03.112-.011.286-.163.286-.153 0-.287-.203-.095-.301z"/><path fill="var(--color22, #a4c0f5)" d="M24.76 22.998s.006-.092.003-.202c-.144.063-.935.052-1.222.047-.025.058-.03.114-.01.155h1.229zm1.386.066c.391-.028.33-.072.33-.072s-.007-.092-.02-.203c-.271.244-.696.12-.881.047-.035.121-.023.165-.023.165s.204.092.594.063z"/><path fill="var(--color19, #ffa283)" d="M22.577 15.278c.094-.026.212-.076.3-.117a.53.53 0 01-.069-.107c-.026-.084.141-.416.114-.443s-.129.145-.146.129c-.017-.017-.041-.395-.096-.394s0 .321-.035.322c-.035.001-.097-.382-.152-.342s.077.335.04.35c-.037.016-.143-.264-.183-.263s-.01.063.018.137c.028.074.076.175.053.175s-.134-.177-.173-.163.274.524.301.637a.334.334 0 00.03.08z"/><path fill="var(--color1, #7165e3)" opacity=".12" d="M32 16c0 8.837-7.163 16-16 16S0 24.837 0 16 7.163 0 16 0s16 7.163 16 16z"/></symbol><symbol id="icon-emotion" viewBox="0 0 39 32"><path fill="var(--color23, #ecf6ff)" d="M15.075 1.528c1.153-2.037 4.096-2.037 5.25 0l14.682 25.933c1.134 2.003-.318 4.483-2.625 4.483H3.019c-2.307 0-3.759-2.479-2.625-4.483L15.076 1.528z"/><path fill="var(--color24, #d5ebff)" d="M37.449 31.711l-6.83-.001-16.317-.059s-1.53-2.943-.618-5.905c.106-.343.223-.633.361-.91l-.016.036a6.84 6.84 0 01.319-.575l.037-.058a6.26 6.26 0 01.603-.788l-.005.006c1.736-1.946 3.338-2.209 4.652-2.078 1.049.105 1.914.464 2.518.42 1.362-.097 1.8-3.161 5.83-4.085a11.885 11.885 0 012.608-.293c2.52-.003 5.033.821 5.363 3.097.047.329.05.686 0 1.077a5.82 5.82 0 01-.185.877c-.165.573-.788 1.624-1.163 2.316-1.196 2.209.729 2.173 2.143 3.049.081.049.137.086.193.123l-.02-.012c1.011.666.526 3.762.526 3.762z"/><path fill="var(--color25, #88b374)" d="M18.182 31.7h-2.379a.334.334 0 01-.333-.333v-2.379c0-.183.149-.333.333-.333h2.379c.183 0 .333.149.333.333v2.379a.334.334 0 01-.333.333z"/><path fill="var(--color26, #acd29a)" d="M19.589 31.7H17.21a.334.334 0 01-.333-.333v-2.379c0-.183.149-.333.333-.333h2.379c.183 0 .333.149.333.333v2.379a.334.334 0 01-.333.333z"/><path fill="var(--color27, #ffb27d)" d="M23.802 22.349c.061-.061.433-.047.433-.047s.205-.082.457-.193c.351-.156.79-.365.887-.471.224-.248.491-1.08.743-1.628l.068-.148a.064.064 0 01.008-.014l.032-.061a.94.94 0 01.146-.215v-.002c.055-.059.108-.084.158-.064 0 0 .096.05.195.166.013.01.021.023.029.035a.867.867 0 01.15.297l.001.006c.027.096.042.206.035.336-.008.211-.113.475-.262.742l-.021.038.001-.001c-.287.502-.727 1.004-.995 1.167-.177.108-.618.174-.991.211-.248.027-.467.039-.557.045-.039.043-.322.367-.428.272-.118-.103-.149-.412-.087-.473z"/><path fill="var(--color28, #ed7d2b)" d="M25.34 28.637h-2.379a.334.334 0 01-.333-.333v-2.379c0-.183.149-.333.333-.333h2.379c.183 0 .333.149.333.333v2.379c0 .185-.15.333-.333.333z"/><path fill="var(--color29, #f99746)" d="M26.747 28.637h-2.379a.334.334 0 01-.333-.333v-2.379c0-.183.149-.333.333-.333h2.379c.183 0 .333.149.333.333v2.379c0 .185-.15.333-.333.333z"/><path fill="var(--color25, #88b374)" d="M24.374 25.605h-2.379a.333.333 0 01-.333-.333v-2.377c0-.183.149-.333.333-.333h2.379c.183 0 .333.149.333.333v2.379a.333.333 0 01-.333.332z"/><path fill="var(--color26, #acd29a)" d="M25.781 25.605h-2.379a.333.333 0 01-.333-.333v-2.377c0-.183.149-.333.333-.333h2.379c.183 0 .333.149.333.333v2.379a.333.333 0 01-.333.332z"/><path fill="var(--color30, #ed985f)" d="M19.37 25.083c.053.131.41.096.683-.091.272-.185.663-.355.886-.511.167-.113.339-.542.471-.806a1.5 1.5 0 01.091-.163c.16-.047.151-.215.3-.268.177-.061.123-.16.123-.16s-.127-.053-.283-.038c-.055.008-.167.168-.232.27a5.781 5.781 0 00-.769.737c-.113.141-.847.296-1.045.459-.353.29-.226.571-.226.571zm1.27 2.017l-.768 4.267-.266.017s-.209-1.858-.03-2.5c.179-.641-.309-1.452-.172-2.008s1.237.224 1.237.224z"/><path fill="var(--color27, #ffb27d)" d="M19.755 24.744l.671-.11c.032-.11.042-.258.042-.391 0-.165-.013-.302-.013-.302l-.782-.075c.133.251.082.878.082.878z"/><path fill="var(--color30, #ed985f)" d="M19.736 23.999s.359.306.733.246c0-.165-.013-.302-.013-.302l-.541-.052-.179.108z"/><path fill="var(--color27, #ffb27d)" d="M20.128 28.151c.136.378.258.762.197 1.079a2.244 2.244 0 00-.039.437l.003.132v-.006c.03.744.313 1.502.356 1.615l.006.015.235-.025.101-4.477s-1.076-.435-1.136.135c-.031.295.13.692.276 1.096z"/><path fill="var(--color31, #2b478b)" d="M19.485 28.405s.069.01.171.021c.192.021.501.046.691.016.091-.014.142-.164.166-.366.053-.448-.027-1.148-.098-1.179-.105-.045-1.035-.007-1.035-.007s-.203.503.105 1.515z"/><path fill="var(--color32, #233862)" d="M19.641 28.427c.192.021.501.046.691.016.091-.014.142-.164.166-.366l-.51-.834-.383-.15c.001 0-.152.639.036 1.333z"/><path fill="var(--color31, #2b478b)" d="M20.992 26.905s.2.885.17 1.585c0 0-.454.09-.919 0 0 0-.769-1.12-.705-1.48.066-.36 1.26-.219 1.455-.105z"/><path fill="var(--color27, #ffb27d)" d="M20.626 23.834s-.625.496-.929.102c-.303-.395-.587-.596-.201-.93s.58-.243.714-.136c.133.107.571.825.415.964z"/><path fill="var(--color33, #2c3a64)" d="M18.947 23.154s.035-.012.075.001v-.001c-.051-.093-.013-.239-.013-.239-.013.08.059.173.059.173.005-.294.733-.476.799-.495s.059-.13.059-.13c.138.028.286.205.281.378s-.148.504-.24.509c-.092.005-.051.08.013.182s-.018.382-.133.48c-.091.08-.14.013-.193-.016a.167.167 0 00-.041-.016h-.001c-.212-.047-.433-.257-.543-.525a.716.716 0 01-.05-.266.377.377 0 00-.073-.035z"/><path fill="var(--color30, #ed985f)" d="M20.288 29.793c.03.744.313 1.502.356 1.615l.175-.01c-.022-.03-.367-1.583-.532-1.605z"/><path fill="var(--color32, #233862)" d="M19.589 31.68h.149c.05-.007.087-.02.137-.025.077-.009.113.02.12.025h.633c.016-.02 0-.066-.015-.099a.086.086 0 00-.059-.047c-.067-.017-.198-.032-.32-.129-.068-.054-.329-.2-.329-.2h-.001c-.006 0-.034.007-.151.096-.061.046-.165-.065-.165-.065s-.02.014-.035.042a.12.12 0 00-.014.085.5.5 0 01-.045.206c-.015.038-.028.066-.028.066s-.007.031.121.045z"/><path fill="var(--color34, #aa3e39)" d="M19.555 31.276a.518.518 0 00.16.072c.067.008.193-.143.193-.143h-.001c-.006 0-.033.007-.151.096-.061.046-.165-.065-.165-.065s-.021.014-.036.04zm.034.404h.149c.05-.007.087-.02.137-.025.077-.009.113.02.12.025h.633c.016-.02 0-.066-.015-.099-.02-.015-.024.066-.035.078s-.515.005-.544-.014a.338.338 0 00-.239-.025c-.106.022-.262-.035-.301-.051-.015.038-.028.066-.028.066s-.006.031.122.045z"/><path fill="var(--color32, #233862)" d="M20.585 31.679h.149c.05-.007.087-.02.137-.025.077-.009.113.02.12.025l.001.001h.631c.016-.02.001-.067-.014-.1a.086.086 0 00-.059-.047c-.067-.017-.198-.032-.32-.129-.068-.054-.329-.2-.329-.2H20.9c-.006 0-.033.008-.151.096-.061.046-.165-.065-.165-.065s-.02.014-.035.042a.126.126 0 00-.013.086v-.001a.5.5 0 01-.045.206.886.886 0 01-.032.075l.004-.009s-.007.031.121.045z"/><path fill="var(--color34, #aa3e39)" d="M20.549 31.275a.518.518 0 00.16.072c.067.008.193-.143.193-.143h-.001c-.006 0-.033.008-.151.096-.061.046-.165-.065-.165-.065s-.021.014-.036.04zm.033.406h.155c.05-.007.083-.021.134-.028.077-.009.113.02.12.025l.001.001h.631c.016-.02.001-.067-.014-.1-.02-.015-.024.066-.035.078s-.514.005-.544-.014a.338.338 0 00-.239-.025c-.106.022-.262-.035-.301-.051-.015.038-.028.066-.028.066s-.008.032.12.047z"/><path fill="var(--color35, #739cf3)" d="M19.342 26.917a.031.031 0 00.022.025c.095.033.553.178 1.202.067.166-.029.309-.065.449-.11l-.023.006-.095-1.699-.067-.773s-.231-.12-.353-.127c0 0-.518.059-.716.007 0 0-.235.104-.329.234s-.26 1.353-.09 2.369z"/><path fill="var(--color36, #6488d3)" d="M20.571 27.01c.134-.027.271-.05.421-.104l-.099-1.954-.299-.039s-.257 1.267-.023 2.097z"/><path fill="var(--color27, #ffb27d)" d="M20.437 25.083c.055.131.411.096.683-.091.024-.016.047-.032.074-.047.266-.167.611-.322.814-.463.19-.131.391-.677.526-.911a.49.49 0 01.036-.058c.159-.05.149-.215.298-.268.177-.061.125-.16.125-.16s-.129-.053-.283-.038c-.058.008-.168.168-.232.27a4.587 4.587 0 00-.153.121 5.996 5.996 0 00-.616.616c-.082.102-.482.211-.776.322a1.111 1.111 0 00-.27.137c-.352.288-.225.57-.225.57z"/><path fill="var(--color35, #739cf3)" d="M20.433 25.087c.055.131.421.099.693-.086.024-.016.047-.036.074-.052-.28-.209-.279-.474-.265-.573-.115.046-.218.085-.273.131-.354.287-.228.58-.228.58z"/><path fill="var(--color33, #2c3a64)" d="M27.36 16.622c.001-.037.03-.434.636-.454 0 0-.298.036-.349.166 0 0 .203-.162.368-.11s.262.341.263.436c.001.095-.091.401-.195.428a.32.32 0 01-.127 0c.028.044.055.091.081.145.241.496-.008.981-.212.926-.131-.035-.168.189-.168.189l-1.273-1.031s.467-.969.978-.696z"/><path fill="var(--color31, #2b478b)" d="M26.915 31.227l.271.1s1.175-1.63 1.32-3.064a2.204 2.204 0 00-.039-.734l.031-.181.033-.194.151-.859c.138-.784.317-1.788.457-2.526l-.073-.023-.789-.255-.163-.518-.587-.155s-.131.257-.248 1.47a7.08 7.08 0 00-.054.493l-.002.032c-.046.58-.05 1.301.055 2.124.036.281.072.503.114.723l-.011-.071c.031.164.036.388.023.644-.058 1.172-.489 2.995-.489 2.995z"/><path fill="var(--color32, #233862)" d="M27.223 24.812l1.276 2.535.033-.194.151-.859c.138-.784.317-1.788.457-2.526l-1.613-.951s-.131.257-.248 1.47a7.08 7.08 0 00-.054.493l-.002.032z"/><path fill="var(--color31, #2b478b)" d="M27.785 23.144l.03-.254c.495.131 1.817-.367 1.817-.367s.479.421.416 1.432c-.031.493-.087 2.587-.145 3.207-.021.225-.039.384-.047.449v.001a.096.096 0 00.014.055c.077.129.15.278.21.434l.007.02c.576 1.533-.089 3.42-.089 3.42l-.172-.069s-.377-2.101-.684-3.028a1.829 1.829 0 00-.148-.355c-.134-.216-.257-.568-.369-.986-.212-.791-.383-1.82-.497-2.615-.018 0-.343-1.344-.343-1.344z"/><path fill="var(--color27, #ffb27d)" d="M26.84 20.072c.156.072.343.121.57.134.85.046 1.044-.699 1.079-1.194a.708.708 0 00-.292-.037c-.068.004-.128.01-.188.018l.013-.001c-.104-.054-.291-.318-.399-.76l-.651.306s.065.2.113.391c.038.15.065.294.042.334l-.077.032v.001a4.07 4.07 0 00-.209.776z"/><path fill="var(--color30, #ed985f)" d="M26.972 18.537s.066.2.113.391c.359-.1.467-.478.501-.679l-.614.288z"/><path fill="var(--color27, #ffb27d)" d="M26.897 18.748s.858-.198.727-.731c-.131-.533-.11-.917-.663-.812-.554.104-.609.333-.608.523-.001.188.317 1.059.544 1.021z"/><path fill="var(--color33, #2c3a64)" d="M26.303 17.423c.092-.193.201-.182.269-.149.404-.373 1.065-.186 1.065-.186.152.368.216.636.216.636s-.131.135-.514.131a.628.628 0 01-.341-.128c.206.208.448.333.448.333-.479-.091-.799-.645-.832-.704-.04.06-.118.187-.125.295-.009.146.042.43-.043.441.001 0-.28-.381-.142-.67z"/><path fill="var(--color37, #b64c41)" d="M26.318 20.01c.031-.092.238-.453.238-.453.001-.001.131-.12.494-.263v.001c-.006.021-.16.583-.104.701.058.122 1.144-.271 1.204-.361.047-.072.049-.452.047-.601l-.001-.06s.406-.055.634.037c0 0-.09.196-.123.412l-.008.061a.766.766 0 00-.004.131v-.002a.249.249 0 00.078.155c.042.045.099.089.164.136.061.042.104.074.148.107l-.014-.01c.003.254-.014.672.033 1.118a.772.772 0 00.189.426l-.001-.001c.24.269.664.805.571 1.139-.007.315-2.533.72-2.604.383 0 0-.399-1.922-.614-2.386a.455.455 0 01-.021-.051c-.069-.183-.058-.371-.035-.54-.121-.085-.275-.08-.275-.08z"/><path fill="var(--color38, #a03c37)" d="M27.977 22.421c.524-.006.967-.549 1.238-.983a.734.734 0 01-.108-.314v-.003c-.047-.446-.029-.864-.033-1.118l-.134-.097a1.207 1.207 0 01-.164-.136c-.429.724-1.508 2.659-.798 2.651z"/><path fill="var(--color32, #233862)" d="M28.995 31.681h1.362s.032-.208-.038-.366c-.068-.151-.175-.22-.15-.403a.493.493 0 01-.425.163c-.024.039-.156.249-.236.307-.089.063-.486.04-.513.299zm-2.926 0h1.362s.051-.217-.038-.366c-.08-.13-.048-.205.01-.314a.537.537 0 01-.23.043.465.465 0 01-.203-.072c-.059.067-.31.352-.389.408-.089.065-.486.042-.513.3z"/><path fill="var(--color38, #a03c37)" d="M24.732 31.681h-2.379a.333.333 0 01-.333-.333v-2.379c0-.183.149-.333.333-.333h2.379c.183 0 .333.149.333.333v2.379a.334.334 0 01-.333.333z"/><path fill="var(--color37, #b64c41)" d="M26.139 31.681H23.76a.333.333 0 01-.333-.333v-2.379c0-.183.149-.333.333-.333h2.379c.183 0 .333.149.333.333v2.379a.333.333 0 01-.333.333z"/><path fill="var(--color36, #6488d3)" d="M24.732 22.564h-2.379a.333.333 0 01-.333-.333v-2.377c0-.183.149-.333.333-.333h2.379c.183 0 .333.149.333.333v2.379a.333.333 0 01-.333.332z"/><path fill="var(--color35, #739cf3)" d="M26.139 22.564H23.76a.333.333 0 01-.333-.333v-2.377c0-.183.149-.333.333-.333h2.379c.183 0 .333.149.333.333v2.379a.333.333 0 01-.333.332z"/><path fill="var(--color36, #6488d3)" d="M34.627 31.681h-2.379a.333.333 0 01-.333-.333v-2.379c0-.183.149-.333.333-.333h2.379c.183 0 .333.149.333.333v2.379a.335.335 0 01-.333.333z"/><path fill="var(--color35, #739cf3)" d="M36.034 31.681h-2.379a.333.333 0 01-.333-.333v-2.379c0-.183.149-.333.333-.333h2.379c.183 0 .333.149.333.333v2.379a.335.335 0 01-.333.333z"/><path fill="var(--color39, #599dad)" d="M33.031 28.637h-2.379a.334.334 0 01-.333-.333v-2.379c0-.183.149-.333.333-.333h2.379c.183 0 .333.149.333.333v2.379c0 .185-.15.333-.333.333z"/><path fill="var(--color40, #6bb7bf)" d="M34.439 28.637H32.06a.334.334 0 01-.333-.333v-2.379c0-.183.149-.333.333-.333h2.379c.183 0 .333.149.333.333v2.379c0 .185-.15.333-.333.333z"/><path fill="var(--color29, #f99746)" d="M17.554 28.214a.578.578 0 10-1.123-.27.578.578 0 001.123.27z"/><path fill="var(--color28, #ed7d2b)" d="M16.993 27.498h-.004a.465.465 0 00-.066.005h.002a.45.45 0 01-.06.895h-.001a.448.448 0 01-.444-.388v-.002c-.003.02-.004.044-.005.067v.001a.578.578 0 001.156 0 .578.578 0 00-.578-.578z"/><path fill="var(--color29, #f99746)" d="M32.438 31.542a.577.577 0 10-.815-.817.577.577 0 00.815.817z"/><path fill="var(--color28, #ed7d2b)" d="M32.03 30.556h-.004a.465.465 0 00-.066.005h.002a.45.45 0 01-.06.895h-.001a.448.448 0 01-.444-.388v-.002c-.003.02-.004.044-.005.067v.001a.577.577 0 101.155.001c0-.32-.26-.578-.578-.578z"/><path fill="var(--color29, #f99746)" d="M35.084 28.151a.578.578 0 10-1.141-.185.578.578 0 001.141.185z"/><path fill="var(--color28, #ed7d2b)" d="M34.513 27.481h-.004a.465.465 0 00-.066.005h.002a.45.45 0 01-.06.895h-.001a.448.448 0 01-.444-.388v-.002c-.002.022-.005.045-.005.068a.578.578 0 001.155-.001.579.579 0 00-.578-.578z"/><path fill="var(--color27, #ffb27d)" d="M24.625 22.463c.045-.02.269-.045.322-.013s.24.063.24.063c.008-.06-.138-.107-.145-.141-.008-.033.029-.043.029-.043.093.002.29.091.355.145s.194.069.194.069l.257-.097.335-.129c.295-.117.636-.262.872-.388.136-.073.24-.138.28-.19.062-.081.138-.21.225-.373-.001.01.047-.081.093-.171l.049-.104c.084-.162.171-.338.26-.515.16-.321.329-.642.48-.888.098-.153.189-.28.27-.353.064-.059.121-.087.171-.072l.02.009s.281.121.204.711c-.002.032-.009.067-.016.103a2.32 2.32 0 01-.105.36 5.506 5.506 0 01-.338.739c-.038.069-.077.141-.118.211-.294.513-.646.982-.907 1.121-.009.005-.019.011-.029.015l-.002.001a2.13 2.13 0 01-.439.128c-.25.048-.544.082-.806.107h-.002c-.152.012-.293.024-.41.03l-.069.005-.238.01s-.525.095-.655-.001c-.13-.099-.42-.333-.375-.352z"/><path fill="var(--color37, #b64c41)" d="M28.204 19.884c.394-.108.869.542.869.542.485-1.279-.242-1.413-.242-1.413-.119-.05-.484.553-.626.871z"/><path fill="var(--color41, #2e3552)" d="M38.596 31.745H13.241a.029.029 0 01-.029-.029v-.01c0-.016.013-.029.029-.029h25.355c.016 0 .029.013.029.029v.01a.029.029 0 01-.029.029z"/><path fill="var(--color17, #fff)" d="M25.458 19.981v.228h-.912v.568c.066-.009.192-.016.261-.016.201 0 .398.044.546.141.16.104.27.27.27.517a.626.626 0 01-.175.458c-.172.17-.458.235-.746.235-.192 0-.336-.013-.427-.025v-2.105h1.185zm-.912 1.903c.062.013.135.016.228.016.17 0 .341-.053.445-.163a.43.43 0 00.117-.31.398.398 0 00-.172-.345.706.706 0 00-.401-.106c-.062 0-.148.006-.217.013v.895zm-6.481 8.681l-.219.664h-.283l.718-2.113h.329l.721 2.113h-.292l-.226-.664h-.747zm.694-.214l-.206-.608c-.047-.138-.078-.263-.11-.385h-.006a6.066 6.066 0 01-.119.43l.013-.047-.206.611h.634v-.001zm6.123-4.268c.119-.025.307-.044.498-.044.272 0 .449.047.58.153.11.082.175.206.175.373 0 .204-.135.383-.358.464v.006c.201.05.436.217.436.529a.57.57 0 01-.179.423c-.148.135-.385.197-.73.197-.188 0-.332-.013-.423-.025v-2.076zm.272.865h.248c.288 0 .458-.15.458-.354 0-.248-.188-.345-.464-.345-.126 0-.197.009-.241.018v.681h-.001zm0 1.012c.053.009.131.013.228.013.283 0 .542-.104.542-.411 0-.288-.248-.407-.546-.407h-.226v.805h.001zm10.136 1.138v.228h-.85v1.884h-.272v-2.113l1.122.001z"/></symbol><symbol id="icon-play" viewBox="0 0 46 32"><path fill="var(--color42, #cfe7fd)" d="M46.181 15.358c0 8.482-6.876 15.358-15.358 15.358S15.465 23.84 15.465 15.358 22.341 0 30.823 0s15.358 6.876 15.358 15.358z"/><path fill="var(--color43, #ebf3fa)" d="M2.267 31.902C1.185 30.593.475 28.909.168 27.252c-.612-3.311.565-6.901 2.835-9.366 1.888-2.051 4.672-2.774 7.372-2.854 1.168-.035 2.334.042 3.495.159.749.075 1.517.218 2.271.193.715-.023 1.166-.593 1.562-1.12.64-.852 1.268-1.692 2.109-2.361 2.285-1.817 5.803-2.61 8.511-1.302a5.383 5.383 0 012.716 2.982c.619 1.67.453 3.523-.003 5.211-.333 1.237-.585 2.565-.15 3.812.453 1.297 1.587 2.093 2.41 3.134 1.449 1.833 1.055 4.162.355 6.23l-31.387-.068z"/><path fill="var(--color31, #2b478b)" d="M16.522 13.875h-2.727a.73.73 0 01-.73-.73v-.001h4.188a.732.732 0 01-.731.731z"/><path fill="var(--color31, #2b478b)" d="M19.995 31.892H10.32c-.521 0-.944-.446-.944-.995V13.726c0-.548.423-.995.944-.995h9.675c.521 0 .944.446.944.995v17.171c0 .548-.423.995-.944.995zM10.32 13.144c-.305 0-.553.261-.553.582v17.171c0 .321.248.582.553.582h9.675c.305 0 .552-.261.552-.582V13.726c0-.321-.248-.582-.552-.582H10.32z"/><path fill="var(--color31, #2b478b)" d="M19.944 31.68h-9.873a.512.512 0 01-.512-.51v-.693h11.196v.392a.81.81 0 01-.811.811z"/><path fill="var(--color44, #c0d8fb)" d="M20.743 13.706v17.212a.768.768 0 01-.769.768h-9.635a.768.768 0 01-.769-.768V13.706c0-.425.344-.769.769-.769h9.635a.769.769 0 01.769.769z"/><path fill="var(--color45, #f0f6ff)" d="M20.549 12.939H9.736v7.207h10.813v-7.207z"/><path fill="var(--color33, #2c3a64)" d="M14.486 14.685s.301-.144.64 0c.338.144.584.761.433 1.335s.359.585.123 1.045c-.084.163-1.195.302-1.233-.335-.023-.395.333-.414.23-.842-.105-.429-.192-1.203-.192-1.203z"/><path fill="var(--color33, #2c3a64)" d="M15.21 14.859c-.01-.015-.393-.623-1.112-.744a1.064 1.064 0 00-1.217.897c-.09.587.001 1.346.958 1.62l1.37-1.772z"/><path fill="var(--color27, #ffb27d)" d="M15.034 17.472l-1.082.642-.274-.762s.125-.278.162-.721a2.944 2.944 0 00-.018-.641l.942.408s-.016.086-.023.211c-.007.136-.003.317.046.487a.671.671 0 00.246.376z"/><path fill="var(--color46, #ed975d)" d="M14.786 17.098c-.52.019-.947-.467-.947-.467l.901-.02c-.007.135-.003.317.046.487z"/><path fill="var(--color27, #ffb27d)" d="M15.019 16.793s-1.017.339-1.426-.461c-.441-.863-.06-1.536.288-1.602.694-.132 1.119.11 1.259.384.143.274.441 1.497-.121 1.679z"/><path fill="var(--color17, #fff)" d="M14.581 16.356s.05.103.318.027c0 0 .226-.065.192-.184 0-.001-.241-.038-.51.156z"/><path fill="var(--color33, #2c3a64)" d="M14.307 14.824s.097.954-.808 1.292c-.359.135-.547-1.323.204-1.613s1.493.054 1.581.563c.088.509.022.615.022.615s-.351-.968-.999-.857z"/><path fill="var(--color33, #2c3a64)" d="M13.185 14.693s-.301-.163-.64 0c-.338.163-.584.856-.433 1.504s-.359.659-.123 1.177c.084.184 1.195.34 1.233-.376.023-.444-.333-.467-.23-.949.105-.485.192-1.357.192-1.357z"/><path fill="var(--color27, #ffb27d)" d="M17.703 19.748s.201-.448.348-.479c.147-.03.704-.024.675.122s-1.056.817-1.151.697c-.095-.121.128-.34.128-.34z"/><path fill="var(--color28, #ed7d2b)" d="M15.636 20.023a.407.407 0 00-.041.004c-.237.019-1.289.001-1.825-.377l.352-.325 1.513.698z"/><path fill="var(--color29, #f99746)" d="M13.645 17.574l1.23.996s-.195.795-1.053 1.17c-.026.011-.101.054-.08.033.014-.014-1.618-1.818-.097-2.199z"/><path fill="var(--color29, #f99746)" d="M15.822 20.146c-.003-.91-.019-1.663-.052-2.018a.822.822 0 00-.653-.731 3.238 3.238 0 00-.156-.031l-.04-.006c.244.472-1.056.135-1.225-.041-.295.041-.479.078-.629.26-.167.204-.339 1.306-.494 2.567h3.248z"/><path fill="var(--color27, #ffb27d)" d="M14.506 20.146h3.151l.086-.03-.072-.357s-1.519.022-2.096-.09c-.489-.095-1.772-1.84-1.772-1.84s-.423.671-.304 1.32c.069.365.524.725 1.007.996z"/><path fill="var(--color17, #fff)" d="M8.435 24.346h9.286a.502.502 0 00.501-.501v-2.553a.502.502 0 00-.501-.501H8.435a.502.502 0 00-.501.501v2.553c0 .276.225.501.501.501z"/><path fill="var(--color47, #cbe1fd)" d="M13.349 22.321h-1.29v.167h1.29v-.167zm.319.335h-1.609v.167h1.609v-.167zm1.312 0h-1.184v.167h1.184v-.167zm-1.737.326h-1.184v.167h1.184v-.167zm1.105-.661h-.86v.167h.86v-.167zm1.925 0h-1.739v.167h1.739v-.167zm-2.375-.829h-1.826v.237h1.826v-.237zm2.727 0H14.1v.237h2.525v-.237zm-2.341 6.981h-.848v.11h.848v-.11zm.21.219h-1.057v.11h1.057v-.11zm.863 0h-.778v.11h.778v-.11zm-1.142.215h-.778v.11h.778v-.11zm.727-.434h-.566v.11h.566v-.11zm1.265 0h-1.145v.11h1.145v-.11zm-1.561-.546h-1.202v.155h1.202v-.155zm1.793 0h-1.66v.155h1.66v-.155z"/><path fill="var(--color48, #dfebfd)" d="M11.267 22.567a1.33 1.33 0 01-.308.851l.002-.002a1.305 1.305 0 01-.312.274l-.005.003a1.3 1.3 0 01-.618.2h-.004a1.311 1.311 0 01-.824-.221l.005.003a1.28 1.28 0 01-.179-.141l.001.001a1.336 1.336 0 01-.25-.319l-.003-.007a1.325 1.325 0 01-.166-.645v-.003c0-.367.149-.699.391-.939.24-.24.572-.389.938-.389h.006a1.324 1.324 0 011.327 1.332z"/><path fill="var(--color49, #d2e2f9)" d="M30.738 20.619h-3.36a.488.488 0 00-.487.487v1.474a.45.45 0 00.448.448h.086l-.162.683 1.017-.683h2.488a.488.488 0 00.487-.487v-1.406a.518.518 0 00-.516-.516z"/><path fill="var(--color50, #b4cffc)" d="M30.828 21.688h-3.503a.087.087 0 01-.087-.087c0-.048.04-.087.087-.087h3.503a.087.087 0 010 .174zm0 .388h-3.503a.087.087 0 01-.087-.087c0-.048.04-.087.087-.087h3.503c.048 0 .087.039.087.087a.086.086 0 01-.087.087zm0 .389h-3.503a.087.087 0 010-.174h3.503a.087.087 0 010 .174zm-1.908-1.38h-1.487a.103.103 0 110-.206h1.487c.057 0 .103.046.103.103a.105.105 0 01-.103.103zm1.278 0h-.895a.082.082 0 01-.082-.082v-.044c0-.045.037-.082.082-.082h.895c.045 0 .082.037.082.082v.044a.082.082 0 01-.082.082z"/><path fill="var(--color17, #fff)" d="M13.299 29.52h4.672a.265.265 0 00.265-.265v-1.438a.265.265 0 00-.265-.265h-4.673a.265.265 0 00-.265.265v1.438c.001.146.12.265.265.265z"/><path fill="var(--color29, #f99746)" d="M12.092 26.687h4.701a.249.249 0 00.249-.249v-1.245a.249.249 0 00-.249-.249h-4.701a.249.249 0 00-.249.249v1.244c0 .139.112.25.249.25z"/><path fill="var(--color32, #233862)" d="M21.662 22.348c.422-.09.861.038 1.174.335.137.131.289.295.427.49.344.48-.314.957-.227 1.119.087.163.291.291.201.631-.088.34-.675.781-.866.8-1.937.199-2.776-.868-2.13-1.444s.384-1.41.909-1.734c.163-.101.342-.161.51-.197z"/><path fill="var(--color30, #ed985f)" d="M22.647 25.325s1.824.795 2.154.78c.331-.015 2.371-.621 2.371-.621l-.052.351s-1.575.905-2.124.957c-.542.05-2.394-.486-2.573-.6s-.295-.753.225-.867z"/><path fill="var(--color27, #ffb27d)" d="M22.868 26.193a1.744 1.744 0 01-.612.261c-.944.218-1.306-.58-1.443-1.128a.817.817 0 01.32-.098c.055-.007.124-.013.194-.016h.006c.106-.082.264-.414.299-.931l.045.012.744.204s-.034.237-.05.46c-.012.176-.015.343.018.384l.093.02v.001c.01.015.226.37.387.83z"/><path fill="var(--color30, #ed985f)" d="M22.42 24.496s-.034.237-.05.46c-.422-.042-.618-.444-.694-.664l.744.204z"/><path fill="var(--color27, #ffb27d)" d="M22.546 24.718s-1.002-.056-.958-.678c.044-.623-.056-1.049.585-1.041.641.01.748.256.784.467.037.211-.15 1.251-.411 1.252z"/><path fill="var(--color32, #233862)" d="M22.955 23.117c-.142-.199-.261-.166-.331-.114-.525-.34-.909.079-.909.079-.099.442-.44.675-.44.675s.177.142.603.048c.543-.121.729-.592.755-.664.057.06.131.097.188.226.067.152.109.241.11.491-.001 0 .234-.442.023-.74z"/><path fill="var(--color17, #fff)" d="M20.527 28.229c-.09-.463-.385-2.309-.09-2.904.106-.214.521-.233.977-.214.142.091.682.438.905.395a.035.035 0 00.012-.003c.105-.026.144-.099.057-.163 0 0 .226-.022.506.031.158.03.585.25.585.25s-.215.389-.532.523c.054.483-.026.695-.527 1.81-.423.942.057 1.791.057 1.791s-2.491 2.002-2.504.983c-.011-.768.668-1.908.553-2.499z"/><path fill="var(--color28, #ed7d2b)" d="M22.601 31.921a.463.463 0 00.333-.203l.038-.058c.283-.429.393-1.743 1.032-3.144.155-.34.713-.401.864-.788 0 0 .374-1.249-.716-1.286s-2.919 3.474-2.949 3.843c-.027.359-.72 1.875 1.398 1.636z"/><path fill="var(--color32, #233862)" d="M26.934 31.892h-1.551s-.058-.248.044-.416c.09-.148.056-.234-.011-.357a.611.611 0 00.261.049.536.536 0 00.231-.082c.067.076.352.4.442.464.101.075.553.048.584.342z"/><path fill="var(--color28, #ed7d2b)" d="M24.904 26.805c.094.701.459 2.911 1.102 3.99.207.348-.523.543-.527.542-.098-.026-.261-.182-.336-.249-.523-.471-1.583-1.805-1.583-2.873 0-.521-.01-1.517.37-1.771.233-.156.936.083.973.361z"/><path fill="var(--color29, #f99746)" d="M21.675 31.892s.057-.08.158-.231c.12-.181.252-.536.411-.992.169-.479.367-1.067.618-1.681.117-.294.2-.482.287-.668l-.04.097c.155-.34.582-.294.735-.679 0 0 .593-1.335-.497-1.373-1.09-.037-3.161 3.572-3.281 3.922-.131.384-.768 1.973 1.61 1.606z"/><path fill="var(--color31, #2b478b)" d="M25.795 31.892h-1.551s-.058-.248.044-.416c.09-.148.056-.234-.011-.357a.611.611 0 00.261.049.536.536 0 00.231-.082c.067.076.352.4.442.464.101.075.552.048.584.342z"/><path fill="var(--color51, #f58f3e)" d="M22.244 30.669c.169-.479.367-1.067.618-1.681-.065-.464-.206-.871-.442-1.034 0 0-.573 1.776-.176 2.715z"/><path fill="var(--color29, #f99746)" d="M23.998 26.756c.094.701.225 2.961.868 4.039.207.348-.523.543-.527.542-.098-.026-.261-.182-.336-.249-.523-.471-1.583-1.805-1.583-2.873 0-.521.612-1.475.991-1.728a.38.38 0 01.587.27z"/><path fill="var(--color32, #233862)" d="M27.357 24.582l-1.59-.169-.011-.001a.102.102 0 00-.095.065v.001l-.569 1.494a.103.103 0 00.091.139l1.577.064h.003c.043 0 .08-.025.096-.062v-.001l.581-1.388a.104.104 0 00-.084-.143z"/><path fill="var(--color31, #2b478b)" d="M27.495 24.595l-1.59-.169-.012-.001a.1.1 0 00-.094.065v.001l-.569 1.494a.103.103 0 00.091.139l1.577.064h.003c.043 0 .08-.025.096-.062v-.001l.581-1.388a.104.104 0 00-.084-.143z"/><path fill="var(--color43, #ebf3fa)" d="M26.614 25.293c.019-.053-.008-.097-.061-.097s-.113.044-.132.097c-.019.053.008.097.061.097s.113-.044.132-.097zm.833-.556c.01-.026-.004-.048-.03-.048s-.056.022-.065.048.004.048.03.048a.075.075 0 00.065-.048z"/><path fill="var(--color27, #ffb27d)" d="M20.813 25.325s2.202.811 2.533.795c.214-.011 1.992-.636 1.992-.636l.159.302s-1.73 1.112-2.206 1.106c-.939-.011-2.525-.588-2.703-.701s-.295-.753.225-.867z"/><path fill="var(--color27, #ffb27d)" d="M25.338 25.484s.159-.245.318-.253c.159-.007.433.109.527.127s.361.105.282.235c-.079.131-.448.159-.607.131s-.361.064-.361.064l-.159-.303z"/><path fill="var(--color27, #ffb27d)" d="M25.613 25.239s.253-.116.325-.137c.072-.022.057 0 .037.069-.022.068-.151.133-.151.155s-.211-.087-.211-.087zm1.718.114s-.159-.252-.211-.263c-.159-.031-.159.178-.125.313.037.144.159.282.192.27.034-.011.181-.186.144-.32z"/><path fill="var(--color27, #ffb27d)" d="M27.337 25.404s.05.283-.218.43l.079-.195.139-.235z"/><path fill="var(--color17, #fff)" d="M22.734 24.36s-.095-.038-.361-.016c0 0 .014.103.211.114.11.005.15-.098.15-.098zm-.788 1.365s-.197.623-.874.765c0 0-1.117-.344-.561-1.105 0 0 .551-.408 1.434.34zm-4.37.132c0 .325.137.618.357.825a1.127 1.127 0 001.576-.024 1.026 1.026 0 00.165-.208l.003-.005c.103-.167.165-.369.165-.586v-.002a1.13 1.13 0 00-1.132-1.132h-.003a1.136 1.136 0 00-1.129 1.132z"/><path fill="var(--color32, #233862)" d="M18.051 26.37c.02.014.042.026.067.034.177.154.457.401.663.582.286-.018.54-.141.728-.329a1.026 1.026 0 00.165-.208l.003-.005a.873.873 0 00-.09-.132l.001.002c-.182-.235-.331-.316-.29-.619.022-.165-.084-.749-.463-.778-.031-.003-.223-.035-.362.004-.336.091-.808 1.183-.422 1.449z"/><path fill="var(--color27, #ffb27d)" d="M18.443 26.305c-.001 0 .158.097.283.071.118-.024.24-.185.237-.185-.049-.012-.094-.068-.073-.359l-.023.003-.38.05s.001.118-.005.23c-.004.094-.016.182-.038.191z"/><path fill="var(--color46, #ed975d)" d="M18.488 25.885s.001.118-.005.23c.21.007.333-.177.385-.28l-.38.05z"/><path fill="var(--color27, #ffb27d)" d="M18.412 25.986s.495.039.516-.27c.02-.309.097-.512-.219-.551-.316-.038-.385.076-.416.177-.031.102-.01.625.12.644z"/><path fill="var(--color32, #233862)" d="M18.345 25.182s.25.332.456.399c.206.067.299.016.299.016s-.102-.129-.14-.312a.152.152 0 00-.102-.113h-.001c-.146-.044-.429-.112-.512.01z"/><path fill="var(--color32, #233862)" d="M18.543 25.201s-.125.078-.173.144a.607.607 0 00-.083.306s-.093-.347.031-.479c.131-.14.225.029.225.029z"/><path fill="var(--color29, #f99746)" d="M17.933 26.681c.203.191.475.308.776.308h.075l-.003-.003c.286-.018.54-.141.728-.329a.706.706 0 00.069-.076l.001-.002a1.352 1.352 0 00-.109-.2c-.14-.196-.546-.22-.546-.22l-.003.001c-.154.091-.256.12-.323.12-.098 0-.121-.063-.125-.078v-.003s-.293.049-.423.172a.186.186 0 00-.056.086l-.063.225z"/><path fill="var(--color33, #2c3a64)" d="M10.091 21.814s.125-.06.264 0 .242.314.18.552.148.242.05.433c-.035.068-.494.125-.51-.139-.01-.163.137-.171.095-.348-.044-.177-.079-.498-.079-.498z"/><path fill="var(--color33, #2c3a64)" d="M10.391 21.886a.732.732 0 00-.46-.308.44.44 0 00-.504.37c-.037.242.001.557.396.67l.568-.732z"/><path fill="var(--color27, #ffb27d)" d="M10.317 22.968l-.448.265-.113-.316s.052-.114.067-.298a1.18 1.18 0 00-.008-.272l.001.006.389.169s-.007.035-.01.087a.631.631 0 00.019.201.29.29 0 00.102.157z"/><path fill="var(--color46, #ed975d)" d="M10.215 22.812c-.215.008-.392-.193-.392-.193l.373-.008a.631.631 0 00.019.201z"/><path fill="var(--color27, #ffb27d)" d="M10.312 22.686s-.421.14-.589-.191c-.182-.357-.024-.636.12-.663.287-.054.463.045.521.159s.181.619-.052.694z"/><path fill="var(--color17, #fff)" d="M10.131 22.505s.02.044.132.011c0 0 .094-.027.079-.076 0 .001-.099-.015-.211.065z"/><path fill="var(--color33, #2c3a64)" d="M10.018 21.872s.039.395-.335.535c-.148.056-.226-.547.084-.667s.618.023.655.233c.037.211.008.255.008.255s-.146-.401-.412-.355z"/><path fill="var(--color33, #2c3a64)" d="M9.552 21.818s-.125-.067-.264 0c-.14.067-.242.354-.18.622s-.148.272-.05.487c.035.076.494.142.51-.155.01-.184-.137-.193-.095-.392.044-.201.079-.562.079-.562z"/><path fill="var(--color29, #f99746)" d="M10.623 23.238a.34.34 0 00-.269-.302h-.002a2.992 2.992 0 00-.08-.015c.101.196-.437.056-.506-.016-.123.018-.199.031-.26.108-.054.067-.11.367-.163.747.173.088.377.14.593.14h.002a1.325 1.325 0 00.711-.205l-.006.003a9.076 9.076 0 00-.019-.46z"/><path fill="var(--color27, #ffb27d)" d="M9.81 23.116s-.176.278-.125.546c.015.08.075.161.159.234.031.003.063.003.094.003a1.328 1.328 0 00.494-.095l-.009.003c-.241-.186-.612-.691-.612-.691z"/><path fill="var(--color17, #fff)" d="M13.078 25.815h-.848v.11h.848v-.11zm.21.22h-1.057v.11h1.057v-.11zm.863 0h-.778v.11h.778v-.11zm-1.142.215h-.778v.11h.778v-.11zm.727-.435h-.566v.11h.566v-.11zm1.265 0h-1.145v.11h1.145v-.11zm-1.561-.545h-1.202v.155h1.202v-.155zm1.793 0h-1.66v.155h1.66v-.155z"/><path fill="var(--color31, #2b478b)" d="M19.57 14.166l-.112.08-.112-.079a.135.135 0 01.112-.059.14.14 0 01.112.057zm-.11-.251a.332.332 0 00-.27.139l-.001.001.071.049a.245.245 0 01.2-.103c.082 0 .154.041.199.102l.071-.05a.334.334 0 00-.27-.137zm0-.369a.7.7 0 00-.573.297l.071.049a.614.614 0 01.501-.26h.001c.206 0 .388.102.499.257l.069-.05a.697.697 0 00-.567-.293h-.002z"/><path fill="var(--color31, #2b478b)" d="M19.46 13.747a.498.498 0 00-.408.211l.071.049a.414.414 0 01.337-.174c.137 0 .26.068.336.171l.069-.05a.5.5 0 00-.406-.207z"/><path fill="var(--color41, #2e3552)" d="M34.9 31.997H.044A.045.045 0 010 31.953v-.026c0-.024.02-.043.044-.044H34.9c.024 0 .043.02.044.044v.026a.044.044 0 01-.044.044z"/><path fill="var(--color48, #dfebfd)" d="M12.478 28.37a1.137 1.137 0 01-.26.724l.002-.002a1.11 1.11 0 01-.265.233l-.005.003c-.15.095-.33.157-.523.17h-.003l-.072.003h-.001c-.231 0-.446-.07-.625-.19l.004.003a1.165 1.165 0 01-.152-.12l.001.001a1.14 1.14 0 01-.212-.271l-.003-.006a1.112 1.112 0 01-.142-.546v-.001a1.131 1.131 0 011.128-1.13h.002c.312 0 .593.127.799.331.201.207.328.489.328.8z"/><path fill="var(--color33, #2c3a64)" d="M11.479 27.731s.106-.05.225 0c.118.05.206.267.152.468s.127.206.044.367c-.03.057-.419.106-.433-.117-.008-.139.117-.146.08-.295a4.514 4.514 0 01-.068-.423z"/><path fill="var(--color33, #2c3a64)" d="M11.734 27.792a.614.614 0 00-.391-.261.374.374 0 00-.427.314c-.031.206 0 .472.336.567l.482-.621z"/><path fill="var(--color27, #ffb27d)" d="M11.673 28.709l-.38.226-.095-.267s.044-.098.057-.253a1.133 1.133 0 00-.006-.23l.001.005.331.143s-.005.03-.008.073a.514.514 0 00.016.17.222.222 0 00.084.132z"/><path fill="var(--color46, #ed975d)" d="M11.586 28.577c-.182.007-.332-.163-.332-.163l.316-.007a.524.524 0 00.016.17z"/><path fill="var(--color27, #ffb27d)" d="M11.667 28.47s-.357.118-.499-.162c-.155-.302-.022-.539.101-.562.244-.046.392.038.442.135.049.097.154.527-.044.589z"/><path fill="var(--color17, #fff)" d="M11.513 28.317s.018.037.112.01c0 0 .079-.023.068-.064 0-.001-.084-.014-.18.054z"/><path fill="var(--color33, #2c3a64)" d="M11.418 27.78s.034.335-.283.453c-.127.048-.192-.464.072-.566s.524.019.555.197c.031.178.007.215.007.215s-.125-.338-.351-.299z"/><path fill="var(--color33, #2c3a64)" d="M11.023 27.733s-.106-.057-.225 0c-.118.057-.206.301-.152.527.053.227-.127.231-.044.412.03.064.419.12.433-.132.008-.156-.117-.163-.08-.333.038-.167.068-.474.068-.474z"/><path fill="var(--color29, #f99746)" d="M11.931 28.939a.288.288 0 00-.23-.256l-.056-.011-.012-.002c.086.166-.37.048-.43-.015-.103.015-.169.027-.22.091-.046.057-.094.312-.139.634.147.076.32.12.504.12h.001a1.12 1.12 0 00.602-.175l-.005.003a6.462 6.462 0 00-.015-.391z"/><path fill="var(--color27, #ffb27d)" d="M11.241 28.834s-.148.235-.106.463c.012.068.064.136.135.199l.079.003c.148-.001.289-.029.419-.08l-.008.003c-.204-.158-.518-.587-.518-.587z"/></symbol><symbol id="icon-winner" viewBox="0 0 39 32"><path fill="var(--color52, #c4d1f7)" d="M24.926 0l13.832 7.986v15.972l-13.832 7.986-13.832-7.986V7.986L24.926 0z"/><path fill="var(--color43, #ebf3fa)" d="M34.259 31.951l-31.56-.01s-4.084-5.324-2.204-10.39c3.116-8.394 12.676-3.112 15.842-6.287.286-.287.599-.548.932-.785a8.683 8.683 0 012.259-1.127c6.229-2.094 15.668 1.528 13.49 9.36-1.261 4.538 3.842 4.703 1.241 9.238z"/><path fill="var(--color44, #c0d8fb)" d="M12.301 19.885h-1.912a.16.16 0 01-.159-.16v-1.851a.16.16 0 01.159-.16h1.912a.16.16 0 01.159.16v1.85a.16.16 0 01-.159.161z"/><path fill="var(--color48, #dfebfd)" d="M12.219 19.791h-1.746a.146.146 0 01-.146-.146v-1.69c0-.081.065-.146.146-.146h1.746c.081 0 .146.066.146.146v1.69a.146.146 0 01-.146.146z"/><path fill="var(--color53, #b7d3f3)" d="M11.3 18.006v-.003c0-.026.021-.046.046-.046s.046.021.046.046v.005c0 .026-.021.046-.046.046s-.046-.021-.046-.046v-.002zm.372.066a.048.048 0 01.041-.024c.008 0 .016.002.023.006.022.012.03.04.018.064a.048.048 0 01-.041.024.047.047 0 01-.041-.07zm.319.255a.043.043 0 01.025-.007c.016 0 .03.008.038.02a.043.043 0 01.007.025c0 .016-.008.03-.02.038a.043.043 0 01-.025.007.046.046 0 01-.038-.02.043.043 0 01-.007-.025c0-.016.008-.03.02-.038zm.159.393c.026 0 .046.021.046.046s-.021.046-.046.046-.046-.021-.046-.046c0-.026.021-.046.046-.046zm-.114.536c.026 0 .046-.021.046-.046s-.021-.046-.046-.046c-.026 0-.046.021-.046.046s.021.046.046.046zm-.257.213a.047.047 0 01-.033.08.045.045 0 01-.033-.014c-.008-.008-.014-.02-.014-.033s.005-.025.014-.033c.008-.009.02-.014.033-.014s.024.005.033.014zm-.479.15c0-.026.021-.046.046-.046s.046.021.046.046a.046.046 0 01-.046.046.046.046 0 01-.046-.046zm-.283-1.547a.048.048 0 00-.041-.024.046.046 0 00-.023.006.048.048 0 00-.024.041c0 .008.002.016.006.023a.048.048 0 00.041.024.046.046 0 00.023-.006.047.047 0 00.018-.063zm-.32.255a.043.043 0 00-.025-.007.046.046 0 00-.038.02.043.043 0 00-.007.025c0 .016.008.03.02.038a.043.043 0 00.025.007c.016 0 .03-.008.038-.02a.044.044 0 00-.013-.063zm-.158.393a.046.046 0 00-.046.046c0 .026.021.046.046.046s.046-.021.046-.046a.046.046 0 00-.046-.046zm.113.536a.046.046 0 00.046-.046v-.002c0-.026-.021-.046-.046-.046s-.046.021-.046.046v.002c0 .026.021.046.046.046zm.258.213c-.008.008-.014.02-.014.033s.005.025.014.033c.008.008.02.014.033.014s.024-.005.033-.014c.008-.008.014-.02.014-.033s-.005-.025-.014-.033c-.008-.009-.02-.014-.033-.014s-.024.005-.033.014zm.423-.703c0-.026.021-.046.046-.046s.046.021.046.046a.046.046 0 01-.046.046.046.046 0 01-.046-.046z"/><path fill="var(--color53, #b7d3f3)" d="M11.385 18.188h-.012v.578h.012v-.578z"/><path fill="var(--color53, #b7d3f3)" d="M11.668 18.51l-.306.241.023.03.306-.241-.023-.03z"/><path fill="var(--color54, #95b3ef)" d="M19.714 23.907h-.291a.057.057 0 110-.114h.291a.057.057 0 110 .114zm2.038 0h-.291a.057.057 0 110-.114h.291a.057.057 0 110 .114z"/><path fill="var(--color55, #afcdfb)" d="M21.318 25.099h-1.424a.242.242 0 01-.241-.242v-1.431h1.906v1.431a.242.242 0 01-.241.242z"/><path fill="var(--color54, #95b3ef)" d="M21.567 23.487h-1.922c-.02 0-.035-.016-.035-.035s.016-.035.035-.035h1.922c.02 0 .035.016.035.035s-.016.035-.035.035z"/><path fill="var(--color56, #9db0f4)" opacity=".2" d="M19.529 13.373v2.905H17.27V14.5a8.717 8.717 0 012.259-1.128z"/><path fill="var(--color56, #9db0f4)" opacity=".4" d="M20.027 16.278h-3.256v.931h3.256v-.931z"/><path fill="var(--color56, #9db0f4)" opacity=".2" d="M15.363 18.889l1.481-1.68H20.1l1.336 1.68h-6.073z"/><path fill="var(--color56, #9db0f4)" opacity=".4" d="M22.019 18.889h-7.082v.473h7.082v-.473z"/><path fill="var(--color52, #c4d1f7)" d="M22.287 25.283H8.643v6.686h13.644v-6.686z"/><path fill="var(--color56, #9db0f4)" d="M22.336 25.629H8.669v-.334a.01.01 0 01.01-.01h13.656c.081 0 .147.066.147.147v.05a.146.146 0 01-.146.146z"/><path fill="var(--color57, #7b94db)" opacity=".5" d="M15.282 28.662H9.227v-2.674h6.055v2.674zm-5.986-.07h5.916v-2.534H9.296v2.534zm5.986 3.044H9.227v-2.674h6.055v2.674zm-5.986-.071h5.916v-2.534H9.296v2.534zm12.458-2.903h-6.055v-2.674h6.055v2.674zm-5.985-.07h5.916v-2.534h-5.916v2.534zm5.985 3.044h-6.055v-2.674h6.055v2.674zm-5.985-.071h5.916v-2.534h-5.916v2.534z"/><path fill="var(--color57, #7b94db)" d="M12.697 26.471h-.885c-.039-.002-.069-.033-.069-.072s.031-.07.069-.072h.885c.04 0 .072.032.072.072s-.032.072-.072.072zm0 2.928h-.885c-.038-.002-.069-.033-.069-.072s.03-.07.068-.072h.885a.072.072 0 010 .144zm6.527-2.928h-.885c-.039-.002-.069-.033-.069-.072s.031-.07.069-.072h.885c.04 0 .072.033.072.072s-.033.072-.072.072zm0 2.928h-.885a.072.072 0 010-.144h.885c.04 0 .072.033.072.072s-.033.072-.072.072z"/><path fill="var(--color56, #9db0f4)" opacity=".2" d="M28.717 15.649h-6.002v16.197h6.002V15.649z"/><path fill="var(--color56, #9db0f4)" d="M23.055 24.18v-.023c0-.086.07-.156.156-.156h1.082c.086 0 .156.07.156.156v.024c0 .086-.07.156-.156.156h-1.082a.156.156 0 01-.156-.156z"/><path fill="var(--color58, #86a2f2)" opacity=".5" d="M26.433 18.07h-1.434a.18.18 0 01-.18-.18v-.613a.18.18 0 01.18-.18h1.434a.18.18 0 01.18.18v.612a.18.18 0 01-.18.181z"/><path fill="var(--color52, #c4d1f7)" d="M28.717 24.673h-6.002v.076h6.002v-.076z"/><path fill="var(--color59, #f9ddbf)" d="M11.115 22.262H9.426a.153.153 0 00-.153.154v2.721c0 .085.069.153.153.154h1.689a.153.153 0 00.153-.154v-2.722a.153.153 0 00-.153-.153zm-.489.268h-.71c-.039 0-.071-.032-.071-.071s.032-.071.071-.071h.71c.039 0 .071.032.071.071s-.032.071-.071.071z"/><path fill="var(--color29, #f99746)" d="M11.923 22.942h-1.31a.118.118 0 00-.118.118v2.11c0 .065.053.118.118.118h1.31a.118.118 0 00.118-.118v-2.11a.118.118 0 00-.118-.118zm-.38.208h-.55a.055.055 0 01-.055-.055c0-.03.024-.055.055-.055h.55c.03 0 .055.024.055.055s-.024.055-.055.055z"/><path fill="var(--color60, #bdd1f9)" d="M14.86 22.242h-2.693v.3h2.693v-.3zm-.217 1.84v-.383a.08.08 0 00-.019-.052l-.044-.052a.277.277 0 00-.211-.098h-.001a.277.277 0 00-.216.104v.001l-.037.046a.088.088 0 00-.018.051v.384c0 .038.03.07.069.07h.408a.07.07 0 00.069-.071zm-.376-.037a.029.029 0 01-.058 0v-.332a.029.029 0 01.058 0v.332zm.134 0a.029.029 0 01-.058 0v-.332a.029.029 0 01.058 0v.332zm.132 0a.029.029 0 01-.058 0v-.332a.029.029 0 01.058 0v.332z"/><path fill="var(--color60, #bdd1f9)" d="M14.401 22.361h-.078v1.186h.078v-1.186zm-.687 1.553v-.153a.3.3 0 00-.045-.162l-.004-.005c-.039-.062-.097-.098-.158-.098-.063 0-.123.039-.162.105a.303.303 0 00-.041.156v.157c0 .132.079.238.178.238h.054c.1-.001.179-.109.179-.239z"/><path fill="var(--color60, #bdd1f9)" d="M13.54 22.361h-.078v1.186h.078v-1.186zm-.624 1.499v-.151a.254.254 0 00-.058-.161l-.004-.005a.266.266 0 00-.418.005v.001a.257.257 0 00-.054.155v.155c0 .131.103.235.231.235h.069a.232.232 0 00.234-.234z"/><path fill="var(--color60, #bdd1f9)" d="M12.68 22.361h-.078v1.186h.078v-1.186z"/><path fill="var(--color60, #bdd1f9)" d="M12.643 22.463h-.006a.012.012 0 01-.012-.012v-.046c0-.007.005-.012.012-.012h.006c.006 0 .012.005.012.012v.046a.012.012 0 01-.012.012zm.861 0h-.006a.012.012 0 01-.012-.012v-.046c0-.007.005-.012.012-.012h.006c.006 0 .012.005.012.012v.046a.012.012 0 01-.012.012zm.86 0h-.006a.012.012 0 01-.012-.012v-.046c0-.007.005-.012.012-.012h.006c.006 0 .012.005.012.012v.046a.012.012 0 01-.012.012z"/><path fill="var(--color52, #c4d1f7)" d="M8.671 20.728h-6.23v11.237h6.23V20.728z"/><path fill="var(--color61, #718ddb)" d="M8.159 21.22H3.026v2.587h5.133V21.22z"/><path fill="var(--color58, #86a2f2)" d="M8.149 21.221h-1.2v2.582h1.2v-2.582z"/><path fill="var(--color17, #fff)" d="M7.728 22.364l.002-.022a.16.16 0 00-.138-.159h-.001l-.022-.002a.16.16 0 00-.159.138v.001l-.002.022c0 .081.06.148.138.159h.001l.022.002a.16.16 0 00.159-.138v-.001z"/><path fill="var(--color31, #2b478b)" d="M8.005 21.363h-.877v.408h.877v-.408z"/><path fill="var(--color17, #fff)" d="M7.399 22.782H7.23v.17h.169v-.17zm.272 0h-.169v.17h.169v-.17zm.269 0h-.169v.17h.169v-.17zm-.541.284H7.23v.17h.169v-.17zm.272 0h-.169v.17h.169v-.17zm.268 0H7.77v.17h.169v-.17zm-.54.283H7.23v.17h.169v-.17zm.272 0h-.169v.17h.169v-.17zm.268 0H7.77v.17h.169v-.17z"/><path fill="var(--color58, #86a2f2)" d="M8.246 23.837h-5.3v-2.653h5.3v2.653zm-5.141-.16h4.981v-2.333H3.105v2.333z"/><path fill="var(--color58, #86a2f2)" opacity=".5" d="M8.159 24.569H3.026v3.595h5.133v-3.595z"/><path fill="var(--color43, #ebf3fa)" d="M8.145 25.413H2.889a.138.138 0 01-.138-.138v-.052c0-.076.062-.138.138-.138h5.256c.076 0 .138.062.138.138v.053a.137.137 0 01-.137.137h-.001z"/><path fill="var(--color58, #86a2f2)" d="M8.159 24.474H3v.483h5.159v-.483z"/><path fill="var(--color61, #718ddb)" d="M7.893 25.57H3.352v2.337h4.541V25.57z"/><path fill="var(--color57, #7b94db)" opacity=".5" d="M8.38 31.647H3.04v-2.65h5.34v2.65zm-5.262-.08h5.183v-2.493H3.118v2.493z"/><path fill="var(--color57, #7b94db)" d="M6.142 29.439h-.887c-.039 0-.071-.032-.071-.071s.032-.071.071-.071h.887c.039 0 .071.032.071.071s-.032.071-.071.071z"/><path fill="var(--color41, #2e3552)" d="M35.775 31.971H.534a.04.04 0 01-.039-.039v-.01c0-.021.017-.039.039-.039h35.241c.022 0 .039.018.039.039v.01a.039.039 0 01-.039.039z"/><path fill="var(--color31, #2b478b)" d="M5.677 24.767a.13.13 0 01.258 0 .13.13 0 01-.129.129.13.13 0 01-.129-.129zm.478 0a.13.13 0 01.258 0 .13.13 0 01-.129.129.13.13 0 01-.129-.129zm1.691-.139H6.839v.278h1.007v-.278z"/><path fill="var(--color29, #f99746)" d="M7.298 19.509v.988c0 .118-.128.216-.285.216H6.16c-.157 0-.285-.098-.285-.216v-.988h1.423z"/><path fill="var(--color62, #a8d29f)" d="M6.333 19.51c-.001-.01-.136-1.026-.662-1.53l.015-.015c.532.509.667 1.531.668 1.542l-.021.002zm.242 0c-.022-.645.147-1.996.148-2.011l.021.002c-.001.013-.17 1.363-.149 2.007l-.021.001zm.32 0l-.021-.002a.77.77 0 01.391-.593c.175-.106.346-.138.347-.138l.004.021c-.001 0-.169.032-.341.137a.749.749 0 00-.38.576z"/><path fill="var(--color62, #a8d29f)" d="M5.744 18.042s-.043-.384-.24-.39c-.196-.006-.391.035-.391.035s.142.077.211.16c.068.083.42.195.42.195zm.128.161s-.246-.035-.337.035c-.091.072-.06.29-.06.29s.119-.032.202-.088c.083-.056.123-.087.158-.162l.037-.076z"/><path fill="var(--color63, #82b378)" d="M6.343 19.482s-.33-.187-.499-.135-.243.379-.243.379.186.021.336-.012c.15-.033.223-.056.315-.144l.091-.088zm.392-1.973c.007.006-.107-.2-.229-.176s-.268.14-.268.14.173.024.248.048c.077.023.205-.049.248-.012z"/><path fill="var(--color62, #a8d29f)" d="M7.572 18.801c0 .009-.086-.217-.001-.259s.252-.02.252-.02-.079.106-.103.163c-.024.057-.148.063-.147.115z"/><path fill="var(--color63, #82b378)" d="M6.735 17.507s-.002-.088.099-.135c0 0 .022.057 0 .099-.021.041-.099.037-.099.037z"/><path fill="var(--color62, #a8d29f)" d="M7.075 19.075s-.085-.022-.105-.132c0 0 .061-.006.095.027.035.032.01.105.01.105z"/><path fill="var(--color63, #82b378)" d="M6.727 17.579s.089-.035.146-.028c.057.009.114.155.114.155s-.119-.002-.158-.018c-.039-.015-.067-.112-.102-.109z"/><path fill="var(--color62, #a8d29f)" d="M7.28 18.927s.08-.054.138-.057c.058-.004.145.127.145.127s-.117.023-.158.016c-.044-.007-.09-.096-.124-.085zm-.581-1.123s-.155-.116-.277-.099c-.123.017-.242.176-.242.176s.139.044.215.032a.492.492 0 00.205-.089c.028-.027.1-.02.1-.02z"/><path fill="var(--color63, #82b378)" d="M6.675 17.774s.024-.07-.022-.115l-.06-.059s-.013.051 0 .094c.015.043.082.079.082.079z"/><path fill="var(--color62, #a8d29f)" d="M6.673 18.068s.249-.132.413-.039c.163.093.217.31.217.31s-.288-.006-.383-.081-.088-.182-.13-.188c-.043-.006-.116-.003-.116-.003zm-.049.536s.074-.172.197-.193c.123-.021.241.07.241.07s-.152.117-.231.12c-.08.001-.12-.057-.145-.043a.48.48 0 00-.062.046zm.347.601s.331-.175.548-.051c.217.122.287.411.287.411s-.382-.007-.509-.106c-.127-.099-.116-.242-.173-.249-.055-.009-.153-.005-.153-.005zm.528-.391s.25-.132.413-.039c.163.093.217.31.217.31s-.288-.006-.383-.081c-.095-.074-.088-.182-.13-.188-.041-.006-.116-.002-.116-.002z"/><path fill="var(--color63, #82b378)" d="M6.651 18.195s-.023-.135-.147-.153c-.124-.017-.248.153-.248.153s.116.039.181.039.131-.103.164-.081a.34.34 0 01.05.041z"/><path fill="var(--color62, #a8d29f)" d="M6.632 18.771s-.192-.231-.449-.127c-.257.104-.305.565-.305.565s.263-.054.388-.126c.124-.072.139-.34.224-.333.085.006.142.021.142.021z"/><path fill="var(--color63, #82b378)" d="M6.989 19.213s.021-.145-.08-.194c-.1-.049-.256.098-.256.098s.086.068.141.084c.055.016.142-.073.163-.043s.032.055.032.055z"/><path fill="var(--color64, #91b5f8)" d="M22.123 25.103h-4.587v.181h4.587v-.181z"/><path fill="var(--color33, #2c3a64)" d="M18.446 19.005s-.052-.508-.608-.398c0 0 .178.012.282.087 0 0-.396-.139-.718.259-.323.397-.011 1.096-.099 1.271s-.997.229-.612 1.109c.202.464 1.981.554 1.972.981 0 0 .388-.913-.074-1.203 0 0 .226.143.287.353 0 0-.03-.427-.321-.509-.258-.072-.534-.466-.529-.548.005-.083.421-1.402.421-1.402z"/><path fill="var(--color27, #ffb27d)" d="M20.565 24.868l-.288.118s-.815-.473-1.193-.816l-.046-.043c-.157-.153-.988-1.696-1.173-2.17-.186-.473.551-.537.551-.537.314.028.981 2.061 1.19 2.283.017.018.041.046.069.083.161.203.475.644.678.915a.426.426 0 00.212.166z"/><path fill="var(--color27, #ffb27d)" d="M21.314 25.253c-.032.044-.411-.028-.593-.056-.043-.006-.073-.011-.086-.011-.043 0-.113.039-.172.06-.039.013-.073.018-.089-.004a.307.307 0 01-.02-.036l-.001-.002a1.205 1.205 0 01-.039-.099c-.021-.061-.038-.117-.038-.117l.204-.123s.034.001.084.005c.112.009.304.033.361.094.084.088.41.258.387.289z"/><path fill="var(--color27, #ffb27d)" d="M20.755 25.245c-.017.01-.091-.005-.268 0h-.024a.166.166 0 01-.11-.041c-.038-.039-.037-.092-.039-.099h.257s.088.073.129.085l.019.007c.032.015.049.04.035.048zm-2.647-1.267a.114.114 0 01-.049.037c-.058.023-.203.016-.203.016a.224.224 0 01.103-.093c.078-.039.18-.079.184-.049.002.018-.01.057-.035.089z"/><path fill="var(--color32, #233862)" d="M17.558 31.494l-.234.087s-1.013-1.408-1.138-2.648a1.894 1.894 0 01.033-.633l-.027-.157-.029-.167c-.246-1.609-.291-1.861-.337-2.113l.207 1.37c-.119-.678-.274-1.546-.393-2.183l.063-.021.68-.22.14-.448.506-.134s.113.222.214 1.27a8.915 8.915 0 010 2.289c-.023.182-.052.37-.089.564-.027.142-.03.334-.019.556.051 1.014.422 2.588.422 2.588z"/><path fill="var(--color31, #2b478b)" d="M16.937 24.255l-.153.035c-.426.113-1.565-.317-1.565-.317s-.413.364-.359 1.237c.027.426.074 2.235.125 2.771.018.194.034.332.041.388a.082.082 0 01-.012.048 2.523 2.523 0 00-.181.376l-.006.017c-.495 1.324.077 2.955.077 2.955l.148-.06s.325-1.816.59-2.617a1.55 1.55 0 01.128-.306c.114-.187.221-.491.319-.852.183-.683.331-1.573.428-2.26.011 0 .419-1.415.419-1.415z"/><path fill="var(--color32, #233862)" d="M15.765 31.887h-1.174s-.028-.179.033-.316c.058-.131.151-.19.129-.348a.421.421 0 00.366.14c.021.034.134.215.203.265.077.055.42.035.443.259zm2.523 0h-1.174s-.044-.188.033-.316c.068-.113.043-.177-.009-.271a.476.476 0 00.198.038.437.437 0 00.175-.061c.051.057.267.304.335.353.075.054.417.034.442.258z"/><path fill="var(--color33, #2c3a64)" d="M18.177 18.856c.001-.032-.599.432-.626.476-.245.409-.066.844.113.814.116-.02.13.176.13.176l1.171-.794c0 .001-.33-.868-.789-.671z"/><path fill="var(--color65, #eac3a2)" d="M18.181 21.148s.313.215.472.497c0 0-.12.603-.686.872 0 0 .068-1.326.214-1.369z"/><path fill="var(--color27, #ffb27d)" d="M17.868 21.94c-.734-.023-.559-1.047-.514-1.038.094-.039.352-.306.477-.678l.03.017.506.294s-.071.167-.127.328c-.044.126-.077.249-.061.286.04.021-.117.798-.313.792z"/><path fill="var(--color30, #ed985f)" d="M18.368 20.534s-.071.167-.127.328c-.301-.112-.366-.445-.38-.622l.506.294z"/><path fill="var(--color27, #ffb27d)" d="M18.417 20.722s-.723-.234-.57-.683c.153-.449.162-.782.63-.65.467.131.499.333.484.495-.016.161-.353.888-.545.838z"/><path fill="var(--color33, #2c3a64)" d="M19.026 19.626c-.064-.173-.159-.172-.22-.148-.319-.351-.681-.118-.681-.118-.158.305-.453.41-.453.41s.103.126.432.151c.1.007.206-.029.302-.085-.192.164-.409.254-.409.254.417-.044.734-.497.767-.544.03.055.088.17.085.264-.004.127-.067.367.004.383.001 0 .271-.306.174-.566z"/><path fill="var(--color59, #f9ddbf)" d="M18.137 22.905c-.226.214-.511.364-.641.488-.315.3-2.047-.236-1.742-.747l.002-.004c.05-.085.085-.141.12-.196l-.016.026c.251-.393.504-.706.736-.953.118-.126.24-.243.368-.355l.006-.005.052-.045c.321-.271.408-.266.408-.266s.431.315.63.408c.135.063.118-.105.118-.109.002.011.124.444.146.921.017.339-.019.675-.189.836z"/><path fill="var(--color29, #f99746)" d="M20.204 25.309s-.099-.134.577-.17c.12-.006.204.061.379.089.174.027.262.034.262.081h-1.217z"/><path fill="var(--color59, #f9ddbf)" d="M18.137 22.905c-.226.214-.511.364-.641.488-.315.3-.461.876-.461.876-1.845.893-2.147.284-2.147.284a8.534 8.534 0 01.868-1.907l.002-.004c.07-.118.105-.174.141-.23l-.035.059s.986.41 1.654.115c.668-.295.409-.488.508-.512a.815.815 0 01.303-.005c.015.339-.022.675-.191.836z"/><path fill="var(--color29, #f99746)" d="M17.952 22.268l-.152-.062s.186-.774-.232-1.001c-.414-.223-.954.3-.969.314.118-.126.24-.243.368-.355l.006-.005c.26-.118.426-.11.426-.11.797.03.554 1.219.554 1.219z"/><path fill="var(--color29, #f99746)" d="M17.8 22.173s.314.204.573.185c0 0-.046.509-.536.973s-.563 1.269-.563 1.38.18 2.593.18 2.593-.596.486-1.634.098c0 0-.402-2.807-.319-3.168s.527-.722.527-.722.79-.181 1.206-.555c.414-.376.566-.783.566-.783z"/><path fill="var(--color27, #ffb27d)" d="M17.863 24.266c-.739-.056-1.278-.154-1.606-.265-.204-.068-.327-.143-.365-.215-.1-.189 1.021-2.328 1.021-2.328.512-.342.613.631.577.797-.035.166-.807 1.104-.856 1.153-.012.012.057.057.17.117a22.49 22.49 0 001.053.503l.006.238z"/><path fill="var(--color59, #f9ddbf)" d="M16.93 21.432a2.299 2.299 0 00-.449.675s.382.428 1.081.222c0 0 .167-.467.016-.791a.399.399 0 00-.647-.106z"/><path fill="var(--color63, #82b378)" d="M18.021 24.23l-.004 1.001c0 .046.038.084.084.085l.388.001a.086.086 0 00.085-.084l.001-.336v-.002a.43.43 0 00-.112-.289l-.138-.152a.487.487 0 01-.125-.309l-.011-.181c-.001-.045-.039-.077-.084-.077-.046 0-.084.041-.085.089v.253z"/><path fill="var(--color63, #82b378)" d="M18.053 23.703l.391.001c.033 0 .058.027.058.06 0 .027-.018.05-.044.057-.061.016-.168.052-.207.115a.06.06 0 01-.051.028l-.2-.001a.059.059 0 01-.058-.055.451.451 0 00-.009-.055v.002a.124.124 0 01.119-.153z"/><path fill="var(--color63, #82b378)" d="M18.374 24.119l-.007-.001c-.15-.065-.194-.218-.196-.224l-.001-.005a.02.02 0 01.013-.018l.005-.001a.02.02 0 01.018.013c.001.002.043.144.175.201.01.004.013.015.01.024-.004.006-.01.011-.017.011z"/><path fill="var(--color29, #f99746)" d="M18.577 24.783l-.557-.002-.001.294.557.002.001-.294z"/><path fill="var(--color27, #ffb27d)" d="M18.331 24.253c-.071.099-.467.012-.467.012l-.006-.237c.005-.001.125-.029.251-.052.133-.023.27-.04.285-.012.029.056.009.189-.062.289z"/><path fill="var(--color66, #ffb93e)" d="M21.314 25.253c-.032.044-.411-.028-.593-.056.03.015.047.041.034.049-.017.01-.091-.005-.268 0h-.024c-.039.013-.073.018-.089-.004a.307.307 0 01-.02-.036l-.001-.002c-.038-.039-.036-.092-.039-.099-.021-.061-.038-.117-.038-.117s-.815-.473-1.193-.816c.166-.061.415-.178.592-.383.161.203.475.644.678.915a.427.427 0 00.212.165c.112.009.304.033.361.094.084.089.41.259.387.29zm-2.983-1c-.071.099-.467.012-.467.012-.739-.056-1.278-.154-1.607-.265.365-.109.495-.336.547-.476a22.49 22.49 0 001.053.503.224.224 0 01.103-.093c.078-.039.18-.079.184-.049a.143.143 0 01-.035.089c.133-.023.27-.04.285-.012.029.057.009.19-.062.29z"/><path fill="var(--color29, #f99746)" d="M15.74 23.914s-.416-.194-.462-.389c0 0-.074.157-.065.194 0 0 .157.232.374.315.219.084.153-.12.153-.12z"/><path fill="var(--color43, #ebf3fa)" d="M18.363 20.441s-.005.07.011.082a.473.473 0 00.144.056c.017-.006.047-.035.063-.038 0-.001-.117-.066-.218-.1z"/><path fill="var(--color17, #fff)" d="M10.982 24.671a.525.525 0 01-.013.114v-.002c-.06.283-.301.378-.301.378l.075.132h-.774l.075-.132s-.277-.109-.31-.444a.346.346 0 01-.002-.034l-.001-.034.001-.036v.002l.001-.013.001-.02a.576.576 0 01.101-.276l-.001.002h1.043a.566.566 0 01.102.294l.001.034a.228.228 0 010 .037z"/><path fill="var(--color29, #f99746)" d="M10.983 24.633v.038c-.029.012-.06.018-.078.002-.006-.005-.011-.012-.017-.02-.015-.018-.029-.037-.083-.035-.039.001-.06.027-.079.052-.016.021-.032.04-.056.041-.027.001-.046-.015-.065-.03s-.038-.032-.066-.034c-.032-.002-.057.012-.083.029-.019.012-.04.026-.066.03-.057.011-.106-.005-.169-.055-.034-.027-.055-.013-.096.015a.625.625 0 01-.038.026.165.165 0 01-.083.023.141.141 0 01-.119-.065c-.026-.037-.1-.043-.152-.041l.001-.013.001-.02c.055-.001.141.005.176.055.046.065.114.057.158.032.013-.007.024-.016.036-.023.04-.028.082-.057.136-.015.056.044.095.057.141.048a.165.165 0 00.055-.027c.028-.018.06-.039.103-.034a.151.151 0 01.085.041c.017.015.028.023.04.022.01-.001.021-.013.033-.029.021-.027.05-.063.105-.066.071-.002.094.027.11.048l.012.015c.004.01.027.004.055-.01z"/><path fill="var(--color29, #f99746)" d="M10.977 24.743a.46.46 0 01-.007.042v-.002c-.026.009-.05.012-.066-.002a.102.102 0 01-.018-.023c-.016-.023-.029-.043-.078-.032-.013.002-.034.023-.054.04-.028.026-.057.054-.086.055-.027.001-.045-.015-.065-.03-.018-.016-.038-.032-.066-.034-.033-.002-.057.012-.083.029-.02.012-.04.026-.066.03a.255.255 0 01-.054.006c-.049 0-.093-.016-.131-.046s-.054-.02-.084.002l-.018.013a.145.145 0 01-.185-.017c-.056-.06-.135-.063-.183-.059a.346.346 0 01-.002-.034c.054-.005.144-.001.209.07.03.033.091.046.142.012l.017-.012c.03-.023.066-.049.124-.002a.177.177 0 00.157.034.157.157 0 00.055-.027c.028-.018.06-.038.103-.034a.151.151 0 01.085.041c.017.015.028.023.04.022.017-.001.044-.026.066-.046.024-.022.046-.043.068-.048.071-.017.096.021.113.045l.013.017c.004.006.024.001.05-.01zm-.986-.169c0-.015.011-.026.026-.026s.026.011.026.026v.001a.025.025 0 01-.025.025h-.002a.025.025 0 01-.025-.025v-.001z"/><path fill="var(--color29, #f99746)" d="M10.135 24.828c0-.015.011-.026.026-.026s.026.011.026.026v.001a.025.025 0 01-.025.025h-.002a.025.025 0 01-.025-.025v-.001zm.361 0c0-.015.011-.026.026-.026s.026.011.026.026v.001a.025.025 0 01-.025.025h-.002a.025.025 0 01-.025-.025v-.001zm.3-.026c0-.015.011-.026.026-.026s.026.011.026.026v.001a.025.025 0 01-.025.025h-.002a.025.025 0 01-.025-.025v-.001zm-.938 0c0-.015.011-.026.026-.026s.026.011.026.026v.001a.025.025 0 01-.025.025h-.001c-.013.001-.026-.011-.026-.026zm.474-.211c0-.015.011-.026.026-.026s.026.011.026.026v.001a.025.025 0 01-.025.025h-.001c-.014 0-.025-.012-.026-.026zm.306 0c0-.015.011-.026.026-.026s.026.011.026.026v.001a.025.025 0 01-.025.025h-.002a.025.025 0 01-.025-.025v-.001zm.259-.051c0-.015.011-.026.026-.026s.026.011.026.026v.001a.025.025 0 01-.025.025h-.001a.028.028 0 01-.026-.026zm-1.097 0c0-.015.011-.026.026-.026s.026.011.026.026v.001a.025.025 0 01-.025.025h-.001c-.014 0-.025-.012-.026-.026z"/><path fill="var(--color43, #ebf3fa)" d="M10.047 25.159s.27.089.623 0c0 0-.111.092-.337.092-.198.001-.286-.092-.286-.092z"/><path fill="var(--color27, #ffb27d)" d="M30.215 25.887s.097.639-.194.931c-.291.292-.512.486-.512.486l.083.153s.568-.153.707-.305.236-1.167.236-1.167l-.32-.098z"/><path fill="var(--color46, #ed975d)" d="M31.963 29.572c.033.072.063.189.091.329.11.556.178 1.616.178 1.616l-.277.079c-.03-.157-.264-.808-.55-1.423-.432-.927-.953-1.984-.953-1.984s.43-.687.824-.666c.393.021.523 1.688.688 2.049z"/><path fill="var(--color33, #2c3a64)" d="M30.695 23.754s-.151-.073-.32 0-.293.382-.217.671c.075.289-.18.294-.062.526.043.082.599.153.618-.168.012-.198-.167-.207-.116-.423.052-.216.096-.605.096-.605z"/><path fill="var(--color27, #ffb27d)" d="M31.254 29.654c.017.098.012.26-.004.45-.049.573-.204 1.392-.204 1.392l-.284.066c.011-.156-.082-.747-.198-1.407-.181-1.026-.421-2.223-.421-2.223s.59-.554.966-.434c.375.121.077 1.766.145 2.156z"/><path fill="var(--color67, #212d4c)" d="M31.927 31.497s-.068.126-.197.154a.322.322 0 00-.195.122.076.076 0 00.062.121l.658-.004a.094.094 0 00.094-.095l-.001-.011c-.005-.049-.011-.106-.013-.15-.005-.095-.108-.181-.108-.181s-.09.052-.125.059c-.075.013-.175-.016-.175-.016z"/><path fill="var(--color33, #2c3a64)" d="M30.332 23.842c.005-.007.197-.314.557-.373a.533.533 0 01.61.45c.045.294-.001.676-.481.814l-.686-.891z"/><path fill="var(--color27, #ffb27d)" d="M30.419 25.155l.543.323.137-.383s-.063-.139-.082-.362a1.55 1.55 0 01.009-.322l-.472.205s.009.043.011.106a.762.762 0 01-.023.244.325.325 0 01-.123.189z"/><path fill="var(--color46, #ed975d)" d="M30.544 24.967c.26.01.475-.234.475-.234l-.452-.01a.766.766 0 01-.023.244z"/><path fill="var(--color27, #ffb27d)" d="M30.427 24.813s.51.17.714-.232c.221-.433.03-.771-.145-.805-.348-.066-.56.055-.63.193s-.22.753.061.844z"/><path fill="var(--color17, #fff)" d="M30.647 24.594s-.026.052-.159.013c0 0-.113-.033-.096-.093 0 .001.12-.017.256.079z"/><path fill="var(--color29, #f99746)" d="M31.981 29.232c-.137.15-1.202.514-1.828.347-.112-.03-.163-3.431-.102-4.093a.412.412 0 01.327-.367l.074-.015.024-.004c-.123.238.529.067.613-.021.147.021.24.039.315.131.187.229.387 2.716.476 3.293.062.404.107.721.1.728z"/><path fill="var(--color33, #2c3a64)" d="M30.783 23.825s-.049.48.405.649c.18.067.274-.664-.102-.81s-.748.027-.792.283c-.044.255-.011.309-.011.309s.176-.487.5-.431z"/><path fill="var(--color33, #2c3a64)" d="M31.347 23.759s.151-.082.32 0 .293.43.217.755c-.075.326.18.331.062.592-.043.093-.599.171-.618-.189-.012-.223.167-.234.116-.477a8.32 8.32 0 01-.096-.681zm-.592 7.738s-.068.126-.197.154a.322.322 0 00-.195.122c-.036.051 0 .122.062.121l.658-.004a.094.094 0 00.094-.095l-.001-.011c-.005-.049-.011-.106-.013-.15-.005-.095-.108-.181-.108-.181s-.09.052-.125.059c-.077.013-.175-.016-.175-.016z"/><path fill="var(--color27, #ffb27d)" d="M29.056 25.813s.085-.232.044-.294c-.041-.062-.242-.257-.284-.194s.09.665.167.655c.075-.01.073-.167.073-.167z"/><path fill="var(--color68, #2a4e96)" d="M28.815 25.325s-.093-.03-.097.118c-.005.149-.036 1.347.041 1.278.079-.07.129-.356.12-.495-.01-.139.056-.217.064-.305.01-.088-.083-.588-.129-.595z"/><path fill="var(--color59, #f9ddbf)" d="M29.641 27.247l.004 1.001a.086.086 0 01-.084.085l-.388.001a.086.086 0 01-.085-.084l-.001-.336c0-.107.039-.211.112-.29l.137-.153a.487.487 0 00.125-.309l.011-.181c.001-.045.039-.077.084-.077.046 0 .084.041.085.089v.253z"/><path fill="var(--color59, #f9ddbf)" d="M29.609 26.721l-.391.001a.058.058 0 00-.058.06c0 .027.018.05.044.057.061.016.168.052.207.115a.06.06 0 00.051.028l.2-.001c.03 0 .056-.024.058-.055a.284.284 0 01.009-.052.125.125 0 00-.119-.153z"/><path fill="var(--color59, #f9ddbf)" d="M29.286 27.136l.007-.001c.15-.065.194-.218.196-.224l.001-.005a.02.02 0 00-.013-.018l-.005-.001a.02.02 0 00-.018.013c-.001.002-.043.144-.175.201-.01.004-.013.015-.01.024a.02.02 0 00.017.011z"/><path fill="var(--color29, #f99746)" d="M29.086 28.093l.557-.002-.001-.294-.557.002.001.294z"/><path fill="var(--color69, #f9b27d)" d="M29.459 27.162s-.141.107-.12.177c.021.07.122.16.163.101.041-.06.061-.289-.043-.278z"/><path fill="var(--color28, #ed7d2b)" d="M30.119 26.436l.021.002c.119.01.646.001.915-.189l-.176-.164-.759.35z"/><path fill="var(--color27, #ffb27d)" d="M31.158 25.291s-.818.715-1.067.709c-.295-.009-1.035-.185-1.035-.185l-.074.167s.746.48 1.032.47c.286-.01 1.019-.173 1.148-.48.13-.306-.004-.681-.004-.681z"/><path fill="var(--color29, #f99746)" d="M31.116 25.206l-.617.5s.097.399.528.588c.013.006.051.027.04.017-.006-.007.812-.914.049-1.106zm-3.369 6.597h-1.905l-.136-2.528h2.216l-.175 2.528z"/><path fill="var(--color28, #ed7d2b)" d="M27.985 29.354h-2.344c0-.081.065-.146.146-.146h2.053c.08.001.145.066.145.146zm-.237 2.449h-1.906v.083h1.906v-.083z"/><path fill="var(--color33, #2c3a64)" d="M26.794 30.335a.829.829 0 01-.826-.829c0-.029.023-.052.052-.052.029 0 .052.023.052.052v.001c0 .399.324.724.722.724s.722-.325.722-.724c0-.029.023-.052.052-.052.029 0 .052.023.052.052v.001c0 .456-.37.829-.826.829z"/><path fill="var(--color66, #ffb93e)" d="M26.245 29.209s-.119.249-.067.268c.052.021.134-.123.152-.123s-.09.251 0 .289c.09.038.297-.207.361-.436h-.447v.001z"/><path fill="var(--color56, #9db0f4)" d="M25.372 30.789l.004 1.001a.086.086 0 01-.084.085l-.388.001a.086.086 0 01-.085-.084l-.001-.336c0-.107.039-.211.112-.29l.137-.153a.482.482 0 00.125-.309l.011-.181c.001-.045.039-.077.084-.077.046 0 .084.041.085.089v.253z"/><path fill="var(--color56, #9db0f4)" d="M25.341 30.263l-.391.001a.058.058 0 00-.058.06c0 .027.018.05.044.057.061.016.168.052.207.115a.06.06 0 00.051.028l.2-.001c.03 0 .056-.024.058-.055a.451.451 0 01.009-.055v.002a.124.124 0 00-.119-.153z"/><path fill="var(--color56, #9db0f4)" d="M25.019 30.678l.007-.001c.15-.065.194-.218.196-.224l.001-.005a.02.02 0 00-.013-.018l-.005-.001a.02.02 0 00-.018.013c-.001.002-.043.144-.175.201-.01.004-.013.015-.01.024.002.007.01.011.017.011z"/><path fill="var(--color29, #f99746)" d="M24.817 31.636l.557-.002-.001-.294-.557.002.001.294z"/><path fill="var(--color28, #ed7d2b)" d="M30.175 25.439s-.147.31-.144.5l.012-.318s.095-.159.131-.182z"/><path fill="var(--color33, #2c3a64)" d="M20.918 19.164c0-.03.024-.056.056-.056h.001c.03 0 .055.025.055.055v.001a.056.056 0 11-.112 0zm.259 0a.056.056 0 11.112 0c0 .03-.024.056-.056.056a.058.058 0 01-.056-.056zm.261 0a.056.056 0 11.112 0 .056.056 0 11-.112 0z"/></symbol><symbol id="icon-wizard" viewBox="0 0 60 32"><path fill="var(--color70, #ffd324)" d="M10.48 0h39.28c5.788 0 10.48 4.692 10.48 10.48s-4.692 10.48-10.48 10.48H10.48C4.692 20.96 0 16.268 0 10.48S4.692 0 10.48 0z"/><path fill="var(--color71, #fbecdb)" opacity=".5" d="M49.664 31.902s6.121-6.572 1.036-13.686c-4.511-6.312-9.774-5.882-13.633-3.32-1.643 1.091-6.383.134-10.417-6.288C21.148-.152 2.08 5.162 5.557 18.637 7.24 25.159.436 25.395 3.902 31.916l45.761-.014z"/><path fill="var(--color41, #2e3552)" d="M.459 31.981h51.273a.058.058 0 00.059-.059v-.02a.058.058 0 00-.059-.059H.459a.058.058 0 00-.059.059v.02a.06.06 0 00.059.059z"/><path fill="var(--color27, #ffb27d)" d="M10.428 22.186l-.809.413-.161-.561s.102-.195.15-.514c.02-.134.03-.289.018-.463l.66.339s-.016.061-.026.152c-.012.096-.016.228.012.352a.475.475 0 00.158.282zm-1.445.114s-.748-.969-1.112-1.268c0 0-.498-1.227-.538-1.307-.041-.081-.299.067-.299.067s.183 1.193.376 1.548c.193.354.791 1.54 1.213 1.585.421.041.36-.624.36-.624z"/><path fill="var(--color33, #2c3a64)" d="M8.317 31.127s-.018.185.12.319a.47.47 0 01.146.297c.006.091-.093.15-.167.1l-.803-.508a.135.135 0 01-.035-.199c.043-.055.094-.12.13-.173.079-.112.254-.132.254-.132l.356.295zm2.239-.666s-.083.165-.006.341c.049.11.059.228.026.329a.108.108 0 01-.192.032l-.561-.768a.138.138 0 01.041-.199h.001c.09-.052.151-.089.211-.127l-.025.015c.114-.075.286-.03.286-.03l.222.408z"/><path fill="var(--color72, #35488b)" d="M11.942 28.797c-.12.443-1.327 1.872-1.327 1.872s-.561-.374-.561-.664c0 0 .612-1.276.612-1.429 0-.035-.083-.183-.209-.386-.217-.35-.559-.874-.825-1.305-.228-.37-.398-.671-.38-.738.051-.187 1.782-.514 1.782-.514s1.028 2.723.908 3.164z"/><path fill="var(--color33, #2c3a64)" d="M10.458 28.191c-.217-.35-.559-.874-.825-1.305.032-.539.185-1.012.475-1.012.723 0 .614.055.614.055s.185 1.597-.264 2.262z"/><path fill="var(--color72, #35488b)" d="M9.918 25.984s.158 2.969-.091 3.341c-.248.372-1.343 1.951-1.343 1.951s-.856-.219-.811-.482c0 0 .921-1.776.919-2.018-.002-.24-.437-2.42.022-2.792.461-.374 1.303 0 1.303 0z"/><path fill="var(--color27, #ffb27d)" d="M10.485 22.385s1.079-.963 1.144-1.095c.065-.132.372-1.313.372-1.313l.258.032s-.049 1.418-.158 1.693c-.108.276-1.378 1.449-1.378 1.449l-.238-.766z"/><path fill="var(--color66, #ffb93e)" d="M11.101 22.901c.004-.067.41-.341.41-.341.085-.512-.24-.88-.24-.88l-.488.348c-.094.006-.134.039-.134.039-.081-.022-.323-.004-.323-.004.004.116-.028.226-.232.252-.272.035-.516-.15-.638-.276 0 0-.165-.014-.372.053 0 0-.1-.051-.207-.055l-.4-.36s-.469.136-.541.841c0 0 .526.4.563.717l.014.12.051.425.091.744-.268 1.483c-.002.014-.004.026-.004.039a.22.22 0 00.167.213l.065.01c.284.039 1.433.177 2.333-.067a.436.436 0 00.319-.459l-.191-2.392c.004-.002.022-.384.026-.451z"/><path fill="var(--color73, #ffa412)" d="M8.981 25.149c-.018.518-.069.957-.364 1.12l-.084-.012.019.003a.216.216 0 01-.167-.211v-.002c0-.012.002-.026.004-.039l.268-1.483-.091-.744.006-.02s.433.725.41 1.388z"/><path fill="var(--color74, #ea9c68)" d="M10.269 21.904c-.376-.01-.662-.38-.662-.38l.65.026c-.012.098-.018.23.012.354z"/><path fill="var(--color27, #ffb27d)" d="M10.45 21.696s-.748.197-1.006-.398c-.28-.642.028-1.11.282-1.142.508-.063.801.13.89.335s.248 1.099-.165 1.205z"/><path fill="var(--color17, #fff)" d="M10.152 21.361s.032.077.228.033c0 0 .165-.035.148-.124 0 0-.171-.037-.376.091z"/><path fill="var(--color33, #2c3a64)" d="M9.576 21.507s-.089-.258-.077-.396c0 0-.195-.25-.081-.311s.175.087.201.057c.026-.03.067-.518.205-.502s.65.173.874-.02c.224-.193-.319-.949-1.242-.658-.921.291-.732 1.317.12 1.829z"/><path fill="var(--color33, #2c3a64)" d="M9.001 20.079s-.041-.124.004-.213c0 0 .002.122.051.177.047.053-.055.035-.055.035z"/><path fill="var(--color33, #2c3a64)" d="M9.02 19.993s-.114-.014-.167.075c0 0 .081-.055.161.004l.006-.079z"/><path fill="var(--color27, #ffb27d)" d="M12.003 19.977s.006-.112-.032-.205c-.035-.094-.016-.337.032-.323.045.014.026.1.077.091s.134-.293.201-.268c.067.026.116.12.094.327-.02.205-.116.41-.116.41l-.256-.031zm-4.676-.256s-.028-.122-.006-.232c.022-.11-.049-.376-.096-.352-.049.024-.008.116-.067.116-.059-.002-.205-.299-.274-.258s-.104.156-.043.38c.063.224.207.431.207.431l.28-.085z"/><path fill="var(--color74, #ea9c68)" d="M25.758 22.397s-1.024.664-1.352 1.003c0 0-1.262.395-1.345.428-.084.033.043.303.043.303s1.201-.085 1.569-.248c.368-.163 1.598-.66 1.675-1.077.079-.415-.59-.409-.59-.409z"/><path fill="var(--color27, #ffb27d)" d="M26.964 30.148l.23 1.221h.417l.108-1.49-.755.269zm-1.878-.11l-.26 1.347.366.016.694-1.313-.8-.049z"/><path fill="var(--color75, #b2443b)" d="M27.186 31.324s-.098.179-.285.22a.469.469 0 00-.281.173.11.11 0 00.088.175h.948a.136.136 0 00.136-.149 4.589 4.589 0 01-.017-.201l-.001-.013c-.008-.138-.155-.261-.155-.261s-.13.075-.181.083c-.11.016-.252-.026-.252-.026zm-2.349 0s-.098.181-.285.222a.466.466 0 00-.281.175.11.11 0 00.088.175l.948-.006a.138.138 0 00.136-.151 5.707 5.707 0 01-.019-.198l-.001-.016c-.008-.138-.155-.26-.155-.26s-.13.075-.181.083c-.108.018-.25-.024-.25-.024z"/><path fill="var(--color29, #f99746)" d="M24.872 30.093s.395.124.83.163c.411.037.855 0 1.044-.283.055-.083.085-.224.098-.409.079-1.128-.519-3.825-.519-3.825h-.696c0 .053-.757 4.354-.757 4.354z"/><path fill="var(--color28, #ed7d2b)" d="M25.702 30.257c.411.037.855 0 1.044-.283.055-.083.085-.224.098-.409l-.002-.006c-.11-.415-.415-2.978-.415-2.978s-1.04 2.74-.725 3.676z"/><path fill="var(--color29, #f99746)" d="M27.848 25.895s.313 2.099.454 4.34c0 0-.983.403-1.895.081l-.167-4.274 1.608-.147z"/><path fill="var(--color75, #b2443b)" d="M27.38 19.807s.063-.279.326-.293c0 0-.084.051-.098.104 0 0 .153-.128.391-.043.238.086.59.328.413.889-.177.562.185.702.33 1.063s-.35.432-.248.716c.102.283-.202.951-.981.658-.776-.293-.953-1.413-.623-1.687s.489-1.408.489-1.408z"/><path fill="var(--color76, #f99f46)" d="M27.144 19.791s.348-.047.566.179c.116.122-.004.297-.004.297l-.562-.476z"/><path fill="var(--color75, #b2443b)" d="M26.087 20.331c.006-.012.283-.45.802-.537a.765.765 0 01.877.647c.065.423-.002.971-.692 1.168l-.987-1.278z"/><path fill="var(--color27, #ffb27d)" d="M26.213 22.217l.78.464.197-.55s-.09-.2-.116-.521a2.151 2.151 0 01.012-.462l-.678.295s.012.061.016.151c.006.098.002.228-.033.352a.475.475 0 01-.177.271z"/><path fill="var(--color74, #ea9c68)" d="M26.391 21.945c.376.014.684-.336.684-.336l-.651-.016c.004.098.002.23-.033.352z"/><path fill="var(--color27, #ffb27d)" d="M26.222 21.725s.733.244 1.028-.332c.318-.623.043-1.109-.208-1.156-.501-.094-.806.079-.908.277-.1.199-.316 1.081.088 1.211z"/><path fill="var(--color17, #fff)" d="M26.539 21.411s-.035.075-.23.02c0 0-.163-.047-.14-.132.002 0 .175-.028.37.112z"/><path fill="var(--color72, #35488b)" d="M25.226 22.757l.623-.505a.537.537 0 01.287-.124c.043-.006.136-.024.187-.029-.008.116-.008.21.195.246.269.047.539-.116.666-.236.21.039.313.067.482.132a.452.452 0 01.221.192l.001.002a.45.45 0 01.053.263l-.206 1.787s.248 1.521.204 1.525c-.283.028-1.525.277-2.414-.008-.144-.045.2-.851.132-2.498-.495-.293-.43-.747-.43-.747z"/><path fill="var(--color75, #b2443b)" d="M26.737 20.306s-.01.576.322.767c0 0-.132-.271-.086-.436 0 0 .086.513.348.604s.395-.953-.147-1.164c-.543-.21-1.077.039-1.142.407s-.016.444-.016.444.254-.702.721-.621z"/><path fill="var(--color33, #2c3a64)" d="M27.937 26.012c.043-.004-.204-1.525-.204-1.525l.206-1.787a.431.431 0 00-.053-.263.092.092 0 00-.041.02c-.434.368-.833 1.854-.833 1.854s-.21 1.203.926 1.702z"/><path fill="var(--color27, #ffb27d)" d="M28.001 22.901s.37 1.398.303 1.653c-.067.257-.788.851-.908.89l-.086-.228s.548-.757.501-.837c-.1-.177-.501-1.207-.501-1.207l.692-.271z"/><path fill="var(--color72, #35488b)" d="M27.414 23.443s.425.075.839-.354c0 0-.352-1.032-.792-.822-.438.208-.332.928-.047 1.176z"/><path fill="var(--color27, #ffb27d)" d="M27.308 25.216s-.364.071-.379.189c-.012.094.153.248.242.214.088-.031.224-.175.224-.175l-.086-.228z"/><path fill="var(--color74, #ea9c68)" d="M23.06 23.83s-.533-.275-.582-.177c-.047.098.065.389.179.427s.444.053.444.053l-.041-.303z"/><path fill="var(--color27, #ffb27d)" d="M22.397 14.605c.071.126.035 2.496.104 2.695.224.637.055 2.263.177 2.416.12.153.252.482.187.635s-.086.35-.234.344c-.149-.006-1.028-5.233-1.038-5.368-.012-.136.804-.721.804-.721zm-3.719 3.741s-.189.234-.175.342c.014.11.175.372.175.372s.409-.824.379-.89c-.029-.065-.277-.116-.277-.116l-.102.293z"/><path fill="var(--color68, #2a4e96)" d="M23.203 31.192l-.391.145s-1.702-2.361-1.913-4.439a3.166 3.166 0 01.055-1.062l-.045-.263-.049-.281-.218-1.244c-.201-1.136-.46-2.591-.66-3.658l.106-.033 1.142-.37.236-.751.851-.224s.191.372.36 2.129c.031.23.059.484.081.761a14.98 14.98 0 01-.081 3.076c-.052.408-.104.729-.166 1.047l.017-.103c-.045.238-.051.56-.033.932.086 1.7.71 4.338.71 4.338z"/><path fill="var(--color77, #1e3d70)" d="M22.757 21.902l-1.848 3.674c-.014-.079-.029-.173-.049-.281l-.218-1.244c-.201-1.136-.46-2.591-.661-3.658l.106-.033 1.142-.37.236-.751.851-.224s.191.372.36 2.129c.031.228.059.484.081.759z"/><path fill="var(--color68, #2a4e96)" d="M21.943 19.484l-.043-.368c-.718.191-2.632-.533-2.632-.533s-.694.609-.603 2.074c.045.714.126 3.749.21 4.645.031.326.057.556.069.649a.114.114 0 01-.022.079 4.09 4.09 0 00-.313.659c-.834 2.219.128 4.954.128 4.954l.25-.1s.546-3.043.991-4.386c.075-.228.147-.407.214-.515.193-.313.374-.822.535-1.427.309-1.146.556-2.636.719-3.788.028.004.497-1.942.497-1.942z"/><path fill="var(--color27, #ffb27d)" d="M18.89 14.167l.004.008c.218.505.631 1.166 1.325 1.235a1.48 1.48 0 00.714-.12 2.22 2.22 0 00.716-.452 6.053 6.053 0 00-.657-.965s-.045-.004-.122-.008c-.029-.028-.053-.114-.071-.228a3.384 3.384 0 01-.029-.238l-.001-.014c-.008-.096-.014-.195-.02-.281-.01-.173-.012-.307-.012-.307l-1.036-.11c.028.295.016.546-.016.747a1.562 1.562 0 01-.09.344.435.435 0 01-.081.138 4.038 4.038 0 00-.248.061c-.086.026-.234.069-.379.187.004.002.002.004.002.004z"/><path fill="var(--color30, #ed985f)" d="M19.745 13.262s.476.403 1.054.373a3.311 3.311 0 01-.029-.238l-.001-.014c-.008-.096-.014-.195-.02-.281-.25-.006-.584.035-1.004.159z"/><path fill="var(--color33, #2c3a64)" d="M18.581 11.098c-.033-.041-.407-.482-1.132.014 0 0 .377-.214.55-.104 0 0-.376-.016-.523.187s-.014.623.067.735c.081.112.45.391.596.332a.445.445 0 00.147-.108c.004.075.014.153.03.24.144.786.849 1.138 1.042.9.124-.153.36.077.36.077l.603-2.296c-.002-.002-1.378-.731-1.74.024z"/><path fill="var(--color27, #ffb27d)" d="M19.146 12.171c.061.218.197.472.324.782.208.507.832.425 1.199.324.163-.045.277-.092.277-.092.297-.149-.079-1.439-.238-1.661-.161-.22-.423-.44-1.158-.088-.43.204-.489.434-.405.735z"/><path fill="var(--color32, #233862)" d="M20.191 31.851h-1.974s-.047-.301.055-.529c.098-.218.254-.318.216-.584.126.13.33.273.615.236.035.057.226.36.342.444.13.092.704.059.745.432zm4.239 0h-1.974s-.075-.315.055-.529c.114-.189.071-.297-.014-.454a.743.743 0 00.332.063.7.7 0 00.293-.104c.084.096.448.509.562.592.13.092.706.059.745.432z"/><path fill="var(--color33, #2c3a64)" d="M20.502 11.13c-.273-.146-.391-.041-.44.057-.79-.09-.991.606-.991.606.138.56-.118 1.018-.118 1.018s.269.045.714-.287c.136-.1.226-.263.287-.442-.063.419-.236.773-.236.773.48-.517.379-1.439.368-1.535.098.035.299.118.399.238.136.163.32.539.427.478-.002 0 .002-.686-.409-.904z"/><path fill="var(--color78, #b5453c)" d="M18.599 15.694c.024-.035.037-.043.051-.049s.026-.012.047-.043a1.56 1.56 0 00.159-.263c.039-.088.057-.171.033-.25a1.17 1.17 0 00-.07-.182l.003.007a1.165 1.165 0 00-.042-.086l.003.005c-.147-.279-.364-.505-.364-.505.269-.234.849-.352.849-.352l.028.083c.122.332.714.786.814.863.124.094 1.335.055 1.356-.14.02-.191-.458-.885-.476-.91v-.002c.566.024.8.126.8.126s.444.132.824.865c0 0-.216.161-.472.242.037.124.063.256.059.395 0 .026 0 .053-.006.079-.484 2.55.291 3.556.291 3.556.242.446-3.586 1.138-3.745.712a.72.72 0 01-.11-.375c-.02-.344.102-.78.228-1.132.054-.152.096-.258.142-.364l-.016.041a1.107 1.107 0 00.057-.673 22.908 22.908 0 00-.444-1.647z"/><path fill="var(--color27, #ffb27d)" d="M17.31 17.302l1.47.753-.102.291s-2.178-.273-2.306-.808l.938-.236z"/><path fill="var(--color79, #9e3530)" d="M18.988 18.018c-.03.064-.072.171-.112.279l-.014.044.002.006c1.295-.993-.008-3.008-.008-3.008a1.52 1.52 0 01-.159.263c-.022.031-.035.037-.047.043-.014.006-.028.014-.051.049.116.35.299 1.018.446 1.651a1.107 1.107 0 01-.061.684l.004-.011z"/><path fill="var(--color27, #ffb27d)" d="M18.42 14.33s-1.869 1.675-2.05 3.21c0 0 .267.096.607 0 .342-.096 2.19-2.158 2.133-2.404-.053-.246-.69-.806-.69-.806z"/><path fill="var(--color78, #b5453c)" d="M18.78 14.127s-.763.254-1.101.757c0 0 .287.651 1.38.824-.002-.002.723-.993-.279-1.58z"/><path fill="var(--color27, #ffb27d)" d="M4.551 31.386l-.38.197s-.226-.295-.431-.654c-.142-.25-.272-.532-.305-.762-.077-.559-.669-1.477-.608-1.634.061-.156 1.234-.427 1.234-.427s.228 1.571.382 2.585c.045.297.085.547.108.695z"/><path fill="var(--color31, #2b478b)" d="M4.262 29.195a2.471 2.471 0 01-.593.199 1.948 1.948 0 01-.538.034l-.049-.006s-.211-.152-.457-.506a3.953 3.953 0 01-.392-.795l1.792-.175.236 1.25z"/><path fill="var(--color32, #233862)" d="M3.669 29.394a1.948 1.948 0 01-.538.034l.201-.782s.26.408.337.748z"/><path fill="var(--color80, #f1a34f)" d="M4.551 31.386l-.38.197s-.226-.295-.431-.654c.158-.012.433-.059.705-.236.073.537.111.773.149 1.009l-.043-.316z"/><path fill="var(--color27, #ffb27d)" d="M3.687 28.467s-.48.677-.772 1.63c-.069.224-.301.504-.538.752-.228.24-.461.453-.545.557l-.388-.187s.136-.39.337-.744c.075-.132.158-.258.248-.358.124-.138.083-1.88.205-1.996.124-.114 1.453.347 1.453.347z"/><path fill="var(--color31, #2b478b)" d="M3.915 28.063l-.709 1.441c-.004 0-.528.016-.902-.193-.213-.12-.309-.262-.309-.262l.22-.988h1.699v.002z"/><path fill="var(--color81, #aa443e)" d="M2.645 23.251s-.242-.508-.823-.205c-.583.301-.016 1.453-.321 1.736s.11.471.049.673c-.063.205.116.435.524.408s.837-.006 1.022-.362.142-1.142.071-1.252c-.073-.108-.522-.998-.522-.998z"/><path fill="var(--color27, #ffb27d)" d="M3.59 25.956l-.99-.599c.006-.002.026-.031.1-.246a1.15 1.15 0 00.057-.234l.002-.018c.01-.091.002-.144.002-.144l.618.224a.497.497 0 00.032.222c.053.12.15.12.154.12l.026.673z"/><path fill="var(--color30, #ed985f)" d="M3.409 25.163a.742.742 0 01-.654-.284l-.01-.013.014-.004.22-.065.402.146c-.008.1.006.171.028.22z"/><path fill="var(--color27, #ffb27d)" d="M3.429 25.023s-.862.094-.88-.488c-.018-.583-.146-.849.451-.902.597-.051.736.163.772.36.112.616-.098 1.004-.343 1.03z"/><path fill="var(--color82, #d35c2b)" d="M1.822 23.044l-.02-.045c.008.014.014.03.02.045z"/><path fill="var(--color27, #ffb27d)" d="M3.706 25.342s.827-.636.915-.845c.089-.211.469-.98.565-1.057 0 0 .205-.026.234.116s-.195.986-.352 1.24c-.158.254-.908 1.118-1.156 1.244l-.207-.699z"/><path fill="var(--color27, #ffb27d)" d="M5.715 23.048a.44.44 0 01-.079.193c-.047.055-.12.163-.165.234-.03.043-.049.077-.049.077l-.234-.114s-.006-.398.15-.482c.006-.002.008-.006.014-.006a.97.97 0 01.176-.075l.007-.002c.073-.02.13-.022.163-.002.03.018.033.096.018.177z"/><path fill="var(--color81, #aa443e)" d="M3.047 23.919c-.305-.077-.189.463-.266.425-.087-.041-.234-.041-.211.063s.057.142.075.207c.018.065 0 .193-.071.167s-.73-.78-.264-1.366c.467-.587 1.855-.224 1.418.388-.079.11-.465.171-.681.116z"/><path fill="var(--color83, #739af0)" d="M4.153 28.276s-.26.138-.667.132c-.26-.004-.811-.116-1.166-.244-.203-.073-.341-.15-.323-.217.024-.094.197-.817.356-1.484l.282-1.177s.404.287.64.185c.234-.1.205-.217.205-.217s.154-.063.226-.039c.073.024.278-.093.278-.093s.226.175.234.551a.939.939 0 01-.012.179l-.163.189c0-.002.347 1.091.11 2.235z"/><path fill="var(--color81, #aa443e)" d="M5.179 31.853H4.045s-.022-.185.004-.343a.099.099 0 01.028-.051.416.416 0 00.274 0 .572.572 0 00.201-.124c.012.012.246.234.354.234.112 0 .282.053.274.284z"/><path fill="var(--color80, #f1a34f)" d="M2.377 30.849c-.228.24-.461.453-.545.557l-.388-.187s.136-.39.337-.744a.841.841 0 00.597.374z"/><path fill="var(--color81, #aa443e)" d="M1.917 31.304s-.014.246.069.28c.083.034.234.114.234.27h-.569s-.392-.193-.445-.276c-.053-.083.262-.431.262-.431s.193.215.449.158z"/><path fill="var(--color27, #ffb27d)" d="M2.858 27.301s.248-.047.347.018c.096.063.126.163.055.205-.22.128-.443-.014-.443-.014l.041-.209z"/><path fill="var(--color84, #4a82d3)" d="M2.322 28.161c-.203-.073-.341-.15-.323-.217.024-.094.197-.817.356-1.485.047-.087.077-.138.077-.138s.303 1.388-.11 1.839z"/><path fill="var(--color27, #ffb27d)" d="M2.647 25.362s-.766.161-1.069 1.355c-.03.116.002.24.081.331.14.154.445.38 1.158.463.079.01.089-.189.089-.189-.008.016-.484-.307-.687-.482-.037-.032-.035-.098-.008-.138.069-.104.183-.286.222-.378.055-.136.427-.9.215-.961z"/><path fill="var(--color83, #739af0)" d="M2.635 25.283s-.451.032-.819.522c0 0 .124.451.709.571.002 0 .36-.811.11-1.093z"/><path fill="var(--color33, #2c3a64)" d="M32.481 30.211s-.338.313-.271.535c.065.222.37.37.411.643s.206.421.354.421h.706s.108-.191-.155-.25c-.263-.057-.364-.377-.346-.672.016-.297-.026-.692-.026-.692l-.56-.132-.112.147zm4.14.854s-.083.659.065.733c.147.075 1.919.049 1.919.049s0-.222-.305-.271c-.305-.049-.839-.23-.93-.633-.09-.405-.749.122-.749.122z"/><path fill="var(--color78, #b5453c)" d="M38.222 21.01l-.218 2.748c-.159 2.038-.352 4.541-.372 5.015-.033.824-.165 2.141-.165 2.141s-.313.313-.938.181c0 0-.558-1.879-.718-3.869l-.008-.098c-.147-2.025-.379-6.289-.379-6.289l2.797.171z"/><path fill="var(--color79, #9e3530)" d="M38.222 21.01l-.218 2.748-2.192 3.468-.008-.098c-.147-2.025-.379-6.289-.379-6.289l2.797.171z"/><path fill="var(--color78, #b5453c)" d="M37.766 21.157s-1.803 4.519-2.988 6.642-1.555 2.717-1.555 2.717-.678-.271-.741-.456c0 0 .454-4.101 1.246-5.099.448-.564.975-2.259 1.001-2.852.026-.592.161-1.765.161-1.765l2.876.814z"/><path fill="var(--color27, #ffb27d)" d="M41.304 20.532s.637.305.721.383c.086.079.297.464.281.491-.016.029-.047.037-.106-.002-.057-.039-.22-.206-.226-.175s.432.546.354.655c-.077.108-.517.077-.767-.102-.252-.179-.501-.834-.539-.869-.318-.303.281-.381.281-.381z"/><path fill="var(--color28, #ed7d2b)" d="M41.331 20.858c.177-.153.181-.193.181-.193s-1.126-1.95-1.225-2.137c-.098-.187-.702-3.118-.702-3.118l-2.09-.605s1.472 3.808 1.73 4.278c.425.776 1.812 1.923 1.812 1.923s.155-.026.293-.147z"/><path fill="var(--color27, #ffb27d)" d="M38.56 14.043s.735 1.294 1.455 1.463c0 0-.029-.434-.204-.731.071-.085.134-.163.189-.232.181-.232.267-.373.267-.373l-.244-.657-.167-.446a2.091 2.091 0 01-.262.376l.002-.003c-.47.543-1.036.604-1.036.604z"/><path fill="var(--color46, #ed975d)" d="M39.598 13.439s-.088.649.401 1.103c.181-.232.267-.373.267-.373l-.244-.657c-.263-.081-.425-.073-.425-.073z"/><path fill="var(--color27, #ffb27d)" d="M40.459 14.263s-1.099-.429-.822-1.109c.277-.68.322-1.193 1.036-.949.714.246.743.56.706.81s-.627 1.343-.92 1.248z"/><path fill="var(--color29, #f99746)" d="M34.781 20.683c.442.637 3.759 1.488 3.719 1.048a4.764 4.764 0 01.035-1.172c.084-.58.285-1.325.731-2.188.033-.065.069-.13.104-.197.164-.29.32-.631.446-.986l.014-.047c.23-.664.322-1.299.206-1.714 0-.002 0-.004-.002-.006-.692-.32-.961-1.563-.961-1.563s-2.365.427-3.69 3.578c0 0-.128.346-.273.816-.177.57-.379 1.321-.415 1.856-.016.254.006.46.085.574z"/><path fill="var(--color31, #2b478b)" d="M39.48 11.89c-.008-.016-.029-.031-.084-.047 0 0 .051-.018.11-.004.031-.075.106-.204.246-.204 0 0-.081.022-.11.102.193-.122.55-.157 1.443.14 1.176.391.588 1.073.411 1.128-.179.055-.507-.297-.802-.344s-.454.364-.566.397c-.112.033-.049-.059-.167-.153s-.185.126-.183.281c.002.155-.228.301-.228.301l-.136-.248c-.136-.248-.098-1.144.031-1.305l.035-.043z"/><path fill="var(--color28, #ed7d2b)" d="M34.699 20.109c2.852-.861 3.306-4.262 3.306-4.262s-1.624 1.24-2.892 2.406c-.177.568-.379 1.319-.415 1.856z"/><path fill="var(--color27, #ffb27d)" d="M33.916 20.219s.065.541.049.627c-.016.088-.118.35-.143.352s-.102.004-.1-.049c.002-.053.037-.104.014-.096-.022.01-.029.212-.132.206s-.405-.12-.393-.356c.012-.236.334-.67.342-.71.065-.33.364.026.364.026z"/><path fill="var(--color29, #f99746)" d="M33.745 20.312c.226.104.311-.002.311-.002s1.319-2.202 1.457-2.379c.14-.177 2.571-1.221 2.571-1.221s.991-.379 1.03-.979c.033-.523-.261-.843-.588-1.036a1.099 1.099 0 00-1.233.079c-.798.619-2.381 1.867-2.636 2.206-.566.753-1.195 3.112-1.195 3.112s.106.138.283.22z"/><path fill="var(--color27, #ffb27d)" d="M44.37 25.307s.584 2.479.529 3.041c-.075.757-.102 2.813-.102 2.813h-.582s-.541-1.671-.403-2.76c.073-.586-1.331-3.165-1.331-3.165l1.889.071z"/><path fill="var(--color72, #35488b)" d="M42.344 25.452l.995 2.498c.073.01.142.016.208.02.955.059 1.47-.401 1.47-.401l-.428-1.983-2.245-.134z"/><path fill="var(--color33, #2c3a64)" d="M42.981 27.052l.358.898c.073.01.142.016.208.02.204-1.317-.539-1.736-.539-1.736l-.028.818z"/><path fill="var(--color27, #ffb27d)" d="M43.671 25.403s-1.109 3.053-1.402 3.432c-.295.379-1.828 1.982-1.828 1.982l-.297-.336s.169-.702.462-1.28c.242-.482.706-.676.727-.8l.55-3.165 1.787.167zm1.735-3.31s.541 1.522.651 1.645c.11.124 1.203.94 1.203.94l-.142.254s-1.447-.649-1.687-.877c-.24-.228-.92-2.038-.92-2.038l.894.077z"/><path fill="var(--color27, #ffb27d)" d="M47.26 24.678s.114.053.226.055c.112.002.356.128.322.169s-.116-.016-.126.041c-.012.057.248.261.193.32s-.173.069-.377-.039c-.204-.108-.376-.293-.376-.293l.138-.254z"/><path fill="var(--color72, #35488b)" d="M43.568 25.698l-.67 2.17s-1.266-.187-1.692-.824c0 0 .346-1.659.676-1.809.33-.151 1.687.462 1.687.462z"/><path fill="var(--color27, #ffb27d)" d="M42.668 22.224s-1.06 1.221-1.113 1.376c-.055.155-.226 1.51-.226 1.51l-.289.002s-.147-1.578-.067-1.899c.081-.322 1.323-1.805 1.323-1.805l.372.816z"/><path fill="var(--color72, #35488b)" d="M43.063 19.014c-.022-.291.09-.488.25-.666.153-.173.328-.153.521-.291.181-.128.49-.185.723-.147.747.114 1.323.672 1.058 1.423-.085.24-.075.44-.318.696-.305.32-.653.562-1.138.488-.258-.039-.476-.134-.647-.354-.092-.12-.246-.155-.324-.281-.159-.256-.1-.55-.124-.867z"/><path fill="var(--color27, #ffb27d)" d="M44.762 21.139l-1.005.332-.086-.674s.153-.204.263-.562c.049-.154.084-.334.1-.52l.001-.009.698.505s-.029.067-.057.169a1.27 1.27 0 00-.049.407c.01.126.047.252.136.352z"/><path fill="var(--color83, #739af0)" d="M41.732 25.212a.15.15 0 01.012-.044v.001l.568-1.657.028-.871.016-.497.037-1.134c.478-.157.9-.216 1.278-.212.12.167.366.423.684.43.24.006.295-.112.313-.246.33.094.592.372.592.372l.421.946s-.263.303-.592.344l-.311 2.351c-.018.244.118.822-.124.849-1.079.122-2.375-.238-2.693-.334-.047-.014-.073-.024-.073-.024a.25.25 0 01-.155-.273z"/><path fill="var(--color85, #4a75cb)" d="M42.93 24.141c-.104.592-.602 1.231-.971 1.368-.047-.014-.073-.024-.073-.024a.254.254 0 01-.155-.274v.001a.173.173 0 01.012-.043l.568-1.657.028-.871.012-.022s.765.476.58 1.521z"/><path fill="var(--color86, #e8945b)" d="M44.628 20.787c-.429-.079-.694-.552-.694-.552l.743.146a1.232 1.232 0 00-.049.407z"/><path fill="var(--color27, #ffb27d)" d="M44.709 20.532s-.971-.03-.888-.706c.083-.674.546-1.048.812-1.002.527.09.582.318.609.55.026.234-.086 1.179-.533 1.158z"/><path fill="var(--color17, #fff)" d="M44.512 20.107s.008.086.218.104c0 0 .177.014.185-.079.002-.002-.159-.092-.403-.026z"/><path fill="var(--color72, #35488b)" d="M44.866 18.869s-.814-.126-.714.462c.063.37-.336.366-.336.366l-.102-.594.187-.423.965.189z"/><path fill="var(--color27, #ffb27d)" d="M41.331 25.11s.01.124.063.222.065.372.012.364-.043-.108-.098-.09c-.055.02-.106.344-.185.324s-.146-.118-.151-.348c-.006-.232.071-.472.071-.472h.289z"/><path fill="var(--color83, #739af0)" d="M43.671 20.797l-.183.258-.177.25-.95 1.335c-.084-.153-.786-.543-.786-.543s.533-.828.818-1.085c.083-.075.222-.124.381-.155a3.1 3.1 0 01.407-.051c.265-.018.489-.008.489-.008z"/><path fill="var(--color72, #35488b)" d="M44.838 30.109s-.32.088-.949.045c0 0 .102.588.037.735s-.254.564.033.645c.226.065 1.221.057 1.626.051a.34.34 0 00.318-.224c.045-.126.028-.277-.23-.375l-.58-.155c-.33-.165-.256-.721-.256-.721z"/><path fill="var(--color33, #2c3a64)" d="M44.007 31.836a.203.203 0 11.157-.374l-.001-.001a.203.203 0 01-.157.374h.001z"/><path fill="var(--color72, #35488b)" d="M43.943 31.675c-.002-.008-.002-.017-.002-.026a.143.143 0 01.284-.026v.001a.143.143 0 11-.282.052v-.001z"/><path fill="var(--color33, #2c3a64)" d="M45.342 31.792a.203.203 0 01.287-.287.203.203 0 01-.287.287z"/><path fill="var(--color72, #35488b)" d="M45.627 31.648c0-.079-.065-.144-.144-.144s-.144.065-.144.144c0 .079.065.143.144.143a.143.143 0 00.143-.143zm-4.345-1.72s-.324-.075-.857-.409c0 0-.189.566-.315.664-.128.098-.489.377-.277.584.169.163 1.05.629 1.408.816a.343.343 0 00.387-.047c.1-.09.155-.232-.026-.438l-.436-.411c-.214-.305.116-.759.116-.759z"/><path fill="var(--color33, #2c3a64)" d="M40.067 31.023a.2.2 0 00-.082-.272l-.001-.001a.202.202 0 00-.272.081l-.001.001a.2.2 0 00.082.272l.001.001a.2.2 0 00.272-.082l.001-.001z"/><path fill="var(--color72, #35488b)" d="M40.016 30.996a.136.136 0 00.017-.067.143.143 0 00-.075-.125h-.001a.141.141 0 00-.192.058v.001a.136.136 0 00-.017.067c0 .054.031.101.075.125h.001a.144.144 0 00.192-.058v-.001z"/><path fill="var(--color33, #2c3a64)" d="M41.3 31.686a.2.2 0 00-.082-.272l-.001-.001a.2.2 0 00-.272.082l-.001.001a.2.2 0 00.082.272l.001.001c.098.051.22.016.273-.083z"/><path fill="var(--color72, #35488b)" d="M41.247 31.656a.136.136 0 00.017-.067.143.143 0 00-.075-.125h-.001a.141.141 0 00-.192.058v.001a.136.136 0 00-.017.067c0 .054.031.101.075.125h.001a.142.142 0 00.193-.059z"/></symbol></defs></svg>