<svg width="41" height="41" viewBox="0 0 41 41" fill="none"
    xmlns="http://www.w3.org/2000/svg">
    <path fill-rule="evenodd" clip-rule="evenodd" d="M27.3091 5.50605C24.1319 4.08052 20.5835 3.69612 17.1735 4.40805C13.7636 5.11997 10.6675 6.8916 8.32991 9.46852C5.9923 12.0454 4.53341 15.2951 4.16275 18.7508C3.79209 22.2065 4.52872 25.6905 6.26687 28.7025C8.00501 31.7145 10.6552 34.0995 13.837 35.5151C17.0187 36.9306 20.5683 37.3039 23.976 36.5813C27.3837 35.8587 30.4742 34.0773 32.8036 31.4931C35.1331 28.9089 36.5818 25.6547 36.9415 22.1978C37.0576 21.0828 38.0577 20.2728 39.1754 20.3885C40.293 20.5043 41.105 21.502 40.989 22.617C40.5404 26.9274 38.734 30.9851 35.8294 34.2074C32.9247 37.4298 29.0712 39.6509 24.8221 40.552C20.573 41.453 16.147 40.9876 12.1796 39.2225C8.21223 37.4574 4.90762 34.4835 2.74031 30.7278C0.572995 26.9721 -0.345521 22.6279 0.116661 18.3189C0.578843 14.0099 2.39795 9.9579 5.31274 6.7447C8.22754 3.5315 12.0881 1.32244 16.34 0.434727C20.5919 -0.452983 25.0164 0.0263319 28.9782 1.80384C30.003 2.26363 30.4601 3.46514 29.9992 4.48747C29.5383 5.50981 28.3339 5.96584 27.3091 5.50605Z" fill="white"/>
    <path fill-rule="evenodd" clip-rule="evenodd" d="M27.3091 5.50605C24.1319 4.08052 20.5835 3.69612 17.1735 4.40805C13.7636 5.11997 10.6675 6.8916 8.32991 9.46852C5.9923 12.0454 4.53341 15.2951 4.16275 18.7508C3.79209 22.2065 4.52872 25.6905 6.26687 28.7025C8.00501 31.7145 10.6552 34.0995 13.837 35.5151C17.0187 36.9306 20.5683 37.3039 23.976 36.5813C27.3837 35.8587 30.4742 34.0773 32.8036 31.4931C35.1331 28.9089 36.5818 25.6547 36.9415 22.1978C37.0576 21.0828 38.0577 20.2728 39.1754 20.3885C40.293 20.5043 41.105 21.502 40.989 22.617C40.5404 26.9274 38.734 30.9851 35.8294 34.2074C32.9247 37.4298 29.0712 39.6509 24.8221 40.552C20.573 41.453 16.147 40.9876 12.1796 39.2225C8.21223 37.4574 4.90762 34.4835 2.74031 30.7278C0.572995 26.9721 -0.345521 22.6279 0.116661 18.3189C0.578843 14.0099 2.39795 9.9579 5.31274 6.7447C8.22754 3.5315 12.0881 1.32244 16.34 0.434727C20.5919 -0.452983 25.0164 0.0263319 28.9782 1.80384C30.003 2.26363 30.4601 3.46514 29.9992 4.48747C29.5383 5.50981 28.3339 5.96584 27.3091 5.50605Z" fill="#1053FF" fill-opacity="0.5"/>
    <path fill-rule="evenodd" clip-rule="evenodd" d="M27.3091 5.50605C24.1319 4.08052 20.5835 3.69612 17.1735 4.40805C13.7636 5.11997 10.6675 6.8916 8.32991 9.46852C5.9923 12.0454 4.53341 15.2951 4.16275 18.7508C3.79209 22.2065 4.52872 25.6905 6.26687 28.7025C8.00501 31.7145 10.6552 34.0995 13.837 35.5151C17.0187 36.9306 20.5683 37.3039 23.976 36.5813C27.3837 35.8587 30.4742 34.0773 32.8036 31.4931C35.1331 28.9089 36.5818 25.6547 36.9415 22.1978C37.0576 21.0828 38.0577 20.2728 39.1754 20.3885C40.293 20.5043 41.105 21.502 40.989 22.617C40.5404 26.9274 38.734 30.9851 35.8294 34.2074C32.9247 37.4298 29.0712 39.6509 24.8221 40.552C20.573 41.453 16.147 40.9876 12.1796 39.2225C8.21223 37.4574 4.90762 34.4835 2.74031 30.7278C0.572995 26.9721 -0.345521 22.6279 0.116661 18.3189C0.578843 14.0099 2.39795 9.9579 5.31274 6.7447C8.22754 3.5315 12.0881 1.32244 16.34 0.434727C20.5919 -0.452983 25.0164 0.0263319 28.9782 1.80384C30.003 2.26363 30.4601 3.46514 29.9992 4.48747C29.5383 5.50981 28.3339 5.96584 27.3091 5.50605Z" fill="url(#paint0_linear)" style="mix-blend-mode:overlay"/>
    <path fill-rule="evenodd" clip-rule="evenodd" d="M37.9217 8.72431C39.2196 9.80255 39.3665 11.6926 38.2499 12.9459L23.0921 29.9588C22.5218 30.5989 21.698 30.9767 20.8239 30.999C19.9497 31.0212 19.1065 30.686 18.502 30.0758L8.85993 20.3428C7.67644 19.1482 7.71993 17.2533 8.95709 16.1105C10.1942 14.9676 12.1566 15.0096 13.3401 16.2043L20.6204 23.5532L33.55 9.04122C34.6666 7.78796 36.6239 7.64607 37.9217 8.72431Z" fill="#FFD324"/>
    <path fill-rule="evenodd" clip-rule="evenodd" d="M37.9217 8.72431C39.2196 9.80255 39.3665 11.6926 38.2499 12.9459L23.0921 29.9588C22.5218 30.5989 21.698 30.9767 20.8239 30.999C19.9497 31.0212 19.1065 30.686 18.502 30.0758L8.85993 20.3428C7.67644 19.1482 7.71993 17.2533 8.95709 16.1105C10.1942 14.9676 12.1566 15.0096 13.3401 16.2043L20.6204 23.5532L33.55 9.04122C34.6666 7.78796 36.6239 7.64607 37.9217 8.72431Z" fill="url(#paint1_linear)"/>
    <defs>
        <linearGradient id="paint0_linear" x1="26.2508" y1="0.729995" x2="11.2529" y2="41.0237" gradientUnits="userSpaceOnUse">
            <stop offset="0.213542" stop-color="white"/>
            <stop offset="1" stop-color="white" stop-opacity="0"/>
        </linearGradient>
        <linearGradient id="paint1_linear" x1="23.5" y1="10.9935" x2="23.5" y2="28.0065" gradientUnits="userSpaceOnUse">
            <stop stop-color="#FFD324"/>
            <stop offset="0.984375" stop-color="#F48C12"/>
        </linearGradient>
    </defs>
</svg>
